<?xml version="1.0" encoding="utf-8"?>
<!-- Generator: Adobe Illustrator 24.2.0, SVG Export Plug-In . SVG Version: 6.00 Build 0)  -->
<svg version="1.1" id="Layer_1" xmlns="http://www.w3.org/2000/svg" xmlns:xlink="http://www.w3.org/1999/xlink" x="0px" y="0px"
	 viewBox="0 0 1316.42 290.77" style="enable-background:new 0 0 1316.42 290.77;" xml:space="preserve">
<style type="text/css">
	.st0{fill:#FFFFFF;stroke:#FFFFFF;stroke-width:3.4322;stroke-miterlimit:10;}
	.st1{fill:#4D6BA1;}
	.st2{fill:#F9A368;}
	.st3{fill:#FFFFFF;stroke:#FFFFFF;stroke-width:1.8163;stroke-miterlimit:10;}
</style>
<g>
	<g id="XMLID_334_">
		<path id="XMLID_366_" class="st0" d="M456.99,182.03h-22.14l-4.77,10.83h-4.37l18.16-40.52h4.15l18.16,40.52h-4.43L456.99,182.03z
			 M455.46,178.56l-9.54-21.77l-9.54,21.77H455.46z"/>
		<path id="XMLID_363_" class="st0" d="M501.05,153.54h16.18c4.2,0,7.91,0.86,11.13,2.57c3.22,1.72,5.71,4.11,7.49,7.18
			c1.78,3.07,2.67,6.57,2.67,10.51c0,3.94-0.89,7.44-2.67,10.51c-1.78,3.07-4.28,5.46-7.49,7.18c-3.22,1.72-6.93,2.58-11.13,2.58
			h-16.18V153.54z M517,190.36c3.48,0,6.53-0.71,9.14-2.12c2.61-1.41,4.64-3.35,6.07-5.85c1.44-2.49,2.16-5.35,2.16-8.6
			c0-3.24-0.72-6.11-2.16-8.59c-1.44-2.49-3.46-4.44-6.07-5.85c-2.61-1.41-5.66-2.12-9.14-2.12h-11.75v33.12H517z"/>
		<path id="XMLID_361_" class="st0" d="M616.96,153.54v40.52h-4.03v-32.42l-15.61,27.27h-1.99l-15.61-27.1v32.25h-4.03v-40.52h3.46
			l17.26,30.05l17.09-30.05H616.96z"/>
		<path id="XMLID_359_" class="st0" d="M655.28,153.54h4.2v40.52h-4.2V153.54z"/>
		<path id="XMLID_357_" class="st0" d="M735.09,153.54v40.52h-3.46l-25.54-32.88v32.88h-4.2v-40.52h3.46l25.6,32.88v-32.88H735.09z"
			/>
		<path id="XMLID_355_" class="st0" d="M775.11,153.54h4.2v40.52h-4.2V153.54z"/>
		<path id="XMLID_353_" class="st0" d="M820.1,192.96c-2.71-0.97-4.8-2.24-6.27-3.82l1.65-3.3c1.44,1.47,3.35,2.66,5.73,3.56
			c2.38,0.91,4.84,1.36,7.38,1.36c3.56,0,6.23-0.66,8-2s2.67-3.06,2.67-5.18c0-1.62-0.48-2.91-1.45-3.88
			c-0.96-0.97-2.15-1.71-3.55-2.23c-1.4-0.52-3.35-1.09-5.85-1.71c-2.99-0.77-5.38-1.51-7.15-2.23c-1.78-0.71-3.3-1.8-4.57-3.27
			c-1.27-1.47-1.9-3.45-1.9-5.96c0-2.04,0.53-3.91,1.59-5.59c1.06-1.68,2.69-3.02,4.88-4.02c2.19-1,4.92-1.5,8.17-1.5
			c2.27,0,4.49,0.32,6.67,0.96c2.18,0.64,4.06,1.51,5.65,2.63l-1.42,3.42c-1.67-1.12-3.44-1.96-5.34-2.52
			c-1.89-0.56-3.75-0.84-5.56-0.84c-3.48,0-6.1,0.69-7.86,2.05c-1.76,1.37-2.64,3.14-2.64,5.3c0,1.62,0.48,2.92,1.45,3.91
			c0.96,0.98,2.18,1.74,3.63,2.26c1.46,0.52,3.42,1.09,5.88,1.71c2.92,0.74,5.27,1.46,7.07,2.17c1.8,0.71,3.32,1.8,4.57,3.24
			c1.25,1.45,1.87,3.41,1.87,5.88c0,2.04-0.54,3.91-1.62,5.59c-1.08,1.68-2.73,3.01-4.97,4c-2.23,0.98-4.98,1.47-8.23,1.47
			C825.64,194.41,822.81,193.93,820.1,192.96z"/>
		<path id="XMLID_351_" class="st0" d="M887.57,157.24H873.6v-3.7h32.13v3.7h-13.97v36.82h-4.2V157.24z"/>
		<path id="XMLID_348_" class="st0" d="M965.28,194.06l-9.08-13.03c-1.03,0.12-2.08,0.17-3.18,0.17h-10.68v12.85h-4.2v-40.52h14.88
			c5.07,0,9.04,1.23,11.92,3.7c2.87,2.47,4.31,5.87,4.31,10.19c0,3.17-0.79,5.84-2.36,8.02c-1.57,2.18-3.82,3.75-6.73,4.72
			l9.71,13.89H965.28z M961.93,174.9c2.08-1.78,3.12-4.26,3.12-7.47c0-3.28-1.04-5.8-3.12-7.56c-2.08-1.75-5.09-2.63-9.03-2.63
			h-10.56v20.32h10.56C956.84,177.56,959.85,176.68,961.93,174.9z"/>
		<path id="XMLID_345_" class="st0" d="M1027.44,183.23h-22.14l-4.77,10.83h-4.37l18.16-40.52h4.15l18.16,40.52h-4.43
			L1027.44,183.23z M1025.9,179.76l-9.54-21.77l-9.54,21.77H1025.9z"/>
		<path id="XMLID_343_" class="st0" d="M1075.49,191.75c-3.16-1.78-5.64-4.24-7.43-7.38c-1.8-3.15-2.7-6.67-2.7-10.57
			c0-3.9,0.9-7.42,2.7-10.56c1.8-3.15,4.28-5.61,7.47-7.38c3.18-1.78,6.74-2.66,10.67-2.66c2.95,0,5.67,0.5,8.17,1.5
			c2.5,1.01,4.62,2.47,6.36,4.4l-2.67,2.72c-3.1-3.2-7.02-4.81-11.75-4.81c-3.14,0-6,0.74-8.57,2.2c-2.57,1.47-4.59,3.47-6.05,6.02
			c-1.46,2.54-2.19,5.4-2.19,8.57c0,3.17,0.73,6.02,2.19,8.57c1.46,2.55,3.47,4.56,6.05,6.02c2.57,1.47,5.43,2.2,8.57,2.2
			c4.77,0,8.69-1.62,11.75-4.86l2.67,2.72c-1.74,1.93-3.87,3.41-6.38,4.43s-5.25,1.54-8.2,1.54
			C1082.2,194.41,1078.65,193.52,1075.49,191.75z"/>
		<path id="XMLID_341_" class="st0" d="M1135.24,153.54h4.2v40.52h-4.2V153.54z"/>
		<path id="XMLID_337_" class="st0" d="M1183.07,191.72c-3.2-1.8-5.7-4.26-7.49-7.38c-1.8-3.13-2.7-6.64-2.7-10.54
			c0-3.9,0.9-7.41,2.7-10.54c1.8-3.13,4.29-5.59,7.49-7.38c3.2-1.8,6.76-2.69,10.7-2.69c3.94,0,7.48,0.89,10.64,2.66
			s5.65,4.24,7.47,7.38c1.82,3.15,2.73,6.67,2.73,10.56c0,3.9-0.91,7.42-2.73,10.57s-4.31,5.61-7.47,7.38s-6.71,2.66-10.64,2.66
			C1189.83,194.41,1186.27,193.52,1183.07,191.72z M1202.28,188.42c2.54-1.45,4.52-3.45,5.96-6.02c1.44-2.56,2.16-5.43,2.16-8.6
			c0-3.16-0.72-6.03-2.16-8.59c-1.44-2.57-3.42-4.57-5.96-6.02c-2.54-1.45-5.37-2.17-8.51-2.17c-3.14,0-5.99,0.73-8.54,2.17
			s-4.56,3.45-6.02,6.02c-1.46,2.57-2.19,5.43-2.19,8.59c0,3.17,0.73,6.04,2.19,8.6c1.46,2.57,3.46,4.57,6.02,6.02
			c2.55,1.45,5.4,2.17,8.54,2.17C1196.91,190.59,1199.75,189.86,1202.28,188.42z M1197.86,143.06h5.39l-9.2,7.18h-3.97
			L1197.86,143.06z"/>
		<path id="XMLID_335_" class="st0" d="M1276.31,153.54v40.52h-3.46l-25.55-32.88v32.88h-4.2v-40.52h3.46l25.6,32.88v-32.88H1276.31
			z"/>
	</g>
	<g id="XMLID_110_">
		<path id="XMLID_302_" class="st0" d="M425.71,213.27h16.21c4.21,0,7.92,0.86,11.15,2.58c3.22,1.73,5.72,4.12,7.51,7.19
			c1.78,3.08,2.67,6.58,2.67,10.53c0,3.95-0.89,7.46-2.67,10.53c-1.78,3.07-4.29,5.47-7.51,7.19c-3.22,1.73-6.94,2.59-11.15,2.59
			h-16.21V213.27z M441.69,250.16c3.49,0,6.54-0.7,9.15-2.12c2.62-1.41,4.64-3.36,6.09-5.85c1.44-2.5,2.16-5.37,2.16-8.62
			c0-3.25-0.72-6.12-2.16-8.61c-1.44-2.49-3.47-4.45-6.09-5.86c-2.61-1.41-5.67-2.12-9.15-2.12h-11.77v33.18H441.69z"/>
		<path id="XMLID_300_" class="st0" d="M534.95,250.16v3.71H506.8v-40.6h27.29v3.71h-23.09v14.44h20.59v3.65h-20.59v15.08H534.95z"
			/>
		<path id="XMLID_297_" class="st0" d="M605.04,251.55c-3.17-1.77-5.65-4.24-7.45-7.39c-1.8-3.15-2.7-6.68-2.7-10.59
			c0-3.9,0.9-7.43,2.7-10.58c1.8-3.15,4.29-5.62,7.48-7.39c3.18-1.78,6.75-2.67,10.69-2.67c2.96,0,5.69,0.5,8.19,1.51
			c2.5,1.01,4.63,2.47,6.37,4.41l-2.67,2.72c-3.11-3.21-7.03-4.81-11.77-4.81c-3.15,0-6.01,0.74-8.58,2.2
			c-2.58,1.47-4.6,3.48-6.06,6.03c-1.46,2.55-2.19,5.41-2.19,8.58c0,3.17,0.73,6.03,2.19,8.59c1.46,2.55,3.48,4.56,6.06,6.03
			c2.58,1.46,5.44,2.2,8.58,2.2c4.78,0,8.7-1.62,11.77-4.87l2.67,2.73c-1.74,1.94-3.88,3.41-6.4,4.44
			c-2.52,1.02-5.26,1.53-8.22,1.53C611.76,254.22,608.2,253.33,605.04,251.55z"/>
		<path id="XMLID_294_" class="st0" d="M679.24,251.52c-3.2-1.8-5.71-4.27-7.51-7.4c-1.8-3.13-2.7-6.65-2.7-10.56
			c0-3.9,0.9-7.42,2.7-10.55c1.8-3.13,4.3-5.6,7.51-7.39c3.2-1.8,6.78-2.7,10.72-2.7c3.94,0,7.5,0.89,10.66,2.67
			c3.17,1.77,5.66,4.24,7.48,7.39c1.82,3.15,2.73,6.68,2.73,10.58c0,3.91-0.91,7.44-2.73,10.59c-1.82,3.15-4.31,5.62-7.48,7.39
			c-3.17,1.78-6.72,2.67-10.66,2.67C686.02,254.22,682.45,253.32,679.24,251.52z M698.49,248.22c2.54-1.45,4.53-3.46,5.97-6.03
			c1.44-2.57,2.16-5.45,2.16-8.62c0-3.17-0.72-6.04-2.16-8.61c-1.44-2.57-3.43-4.58-5.97-6.03c-2.54-1.45-5.38-2.18-8.53-2.18
			c-3.15,0-6,0.73-8.56,2.18s-4.57,3.46-6.03,6.03c-1.46,2.57-2.19,5.44-2.19,8.61c0,3.17,0.73,6.05,2.19,8.62
			c1.46,2.57,3.47,4.58,6.03,6.03c2.56,1.44,5.41,2.17,8.56,2.17C693.11,250.39,695.95,249.66,698.49,248.22z"/>
		<path id="XMLID_292_" class="st0" d="M788.8,213.27v40.6h-3.47l-25.59-32.94v32.94h-4.21v-40.6H759l25.65,32.94v-32.94H788.8z"/>
		<path id="XMLID_290_" class="st0" d="M838.36,252.77c-2.71-0.96-4.81-2.24-6.28-3.83l1.65-3.31c1.44,1.47,3.36,2.66,5.74,3.57
			c2.39,0.91,4.85,1.36,7.39,1.36c3.56,0,6.24-0.67,8.02-2c1.78-1.34,2.67-3.06,2.67-5.19c0-1.62-0.48-2.92-1.45-3.89
			c-0.96-0.96-2.15-1.71-3.55-2.23c-1.4-0.52-3.36-1.09-5.86-1.71c-2.99-0.77-5.38-1.52-7.16-2.23c-1.78-0.72-3.31-1.81-4.58-3.28
			c-1.27-1.47-1.9-3.46-1.9-5.97c0-2.05,0.53-3.92,1.59-5.6c1.06-1.68,2.69-3.03,4.89-4.03c2.2-1.01,4.93-1.51,8.19-1.51
			c2.28,0,4.5,0.32,6.68,0.96c2.18,0.64,4.07,1.52,5.66,2.64l-1.42,3.42c-1.67-1.12-3.45-1.96-5.35-2.53
			c-1.9-0.56-3.75-0.84-5.57-0.84c-3.49,0-6.11,0.69-7.87,2.06c-1.76,1.38-2.64,3.14-2.64,5.31c0,1.62,0.48,2.93,1.45,3.91
			c0.96,0.99,2.18,1.74,3.64,2.27c1.46,0.52,3.42,1.09,5.89,1.71c2.92,0.74,5.28,1.46,7.08,2.18c1.8,0.71,3.33,1.8,4.58,3.25
			c1.25,1.45,1.88,3.41,1.88,5.89c0,2.05-0.54,3.92-1.62,5.6c-1.08,1.68-2.74,3.02-4.98,4c-2.24,0.99-4.98,1.48-8.24,1.48
			C843.9,254.22,841.06,253.74,838.36,252.77z"/>
		<path id="XMLID_287_" class="st0" d="M909.38,251.52c-3.2-1.8-5.71-4.27-7.51-7.4s-2.7-6.65-2.7-10.56c0-3.9,0.9-7.42,2.7-10.55
			c1.8-3.13,4.3-5.6,7.51-7.39c3.2-1.8,6.78-2.7,10.72-2.7s7.5,0.89,10.66,2.67c3.17,1.77,5.66,4.24,7.48,7.39
			c1.82,3.15,2.73,6.68,2.73,10.58c0,3.91-0.91,7.44-2.73,10.59c-1.82,3.15-4.31,5.62-7.48,7.39c-3.17,1.78-6.72,2.67-10.66,2.67
			S912.58,253.32,909.38,251.52z M928.63,248.22c2.54-1.45,4.53-3.46,5.97-6.03c1.44-2.57,2.16-5.45,2.16-8.62
			c0-3.17-0.72-6.04-2.16-8.61c-1.44-2.57-3.43-4.58-5.97-6.03c-2.54-1.45-5.38-2.18-8.53-2.18s-6,0.73-8.56,2.18
			c-2.56,1.45-4.57,3.46-6.03,6.03c-1.46,2.57-2.19,5.44-2.19,8.61c0,3.17,0.73,6.05,2.19,8.62c1.46,2.57,3.47,4.58,6.03,6.03
			c2.56,1.44,5.41,2.17,8.56,2.17S926.09,249.66,928.63,248.22z"/>
		<path id="XMLID_188_" class="st0" d="M1008.3,253.87l-9.1-13.05c-1.02,0.12-2.08,0.18-3.18,0.18h-10.69v12.88h-4.2v-40.6h14.89
			c5.08,0,9.06,1.24,11.95,3.71c2.88,2.47,4.32,5.88,4.32,10.21c0,3.17-0.79,5.85-2.36,8.03c-1.57,2.19-3.82,3.76-6.74,4.72
			l9.72,13.92H1008.3z M1004.94,234.67c2.08-1.77,3.13-4.27,3.13-7.48c0-3.28-1.05-5.81-3.13-7.57c-2.08-1.76-5.1-2.64-9.04-2.64
			h-10.58v20.36h10.58C999.84,237.34,1002.86,236.45,1004.94,234.67z"/>
		<path id="XMLID_186_" class="st0" d="M1065.25,251.55c-3.17-1.77-5.65-4.24-7.45-7.39c-1.8-3.15-2.7-6.68-2.7-10.59
			c0-3.9,0.9-7.43,2.7-10.58c1.8-3.15,4.29-5.62,7.48-7.39c3.18-1.78,6.75-2.67,10.69-2.67c2.96,0,5.68,0.5,8.19,1.51
			c2.5,1.01,4.63,2.47,6.37,4.41l-2.67,2.72c-3.11-3.21-7.03-4.81-11.77-4.81c-3.15,0-6.01,0.74-8.58,2.2
			c-2.58,1.47-4.6,3.48-6.06,6.03c-1.46,2.55-2.19,5.41-2.19,8.58c0,3.17,0.73,6.03,2.19,8.59c1.46,2.55,3.48,4.56,6.06,6.03
			c2.58,1.46,5.44,2.2,8.58,2.2c4.78,0,8.7-1.62,11.77-4.87l2.67,2.73c-1.74,1.94-3.87,3.41-6.4,4.44
			c-2.52,1.02-5.26,1.53-8.22,1.53C1071.97,254.22,1068.41,253.33,1065.25,251.55z"/>
		<path id="XMLID_184_" class="st0" d="M1128.74,213.27h4.21v40.6h-4.21V213.27z"/>
		<path id="XMLID_181_" class="st0" d="M1182.16,251.52c-3.21-1.8-5.71-4.27-7.51-7.4c-1.8-3.13-2.7-6.65-2.7-10.56
			c0-3.9,0.9-7.42,2.7-10.55c1.8-3.13,4.3-5.6,7.51-7.39c3.2-1.8,6.78-2.7,10.72-2.7c3.94,0,7.5,0.89,10.66,2.67
			c3.17,1.77,5.66,4.24,7.48,7.39c1.82,3.15,2.73,6.68,2.73,10.58c0,3.91-0.91,7.44-2.73,10.59c-1.82,3.15-4.31,5.62-7.48,7.39
			c-3.17,1.78-6.72,2.67-10.66,2.67C1188.94,254.22,1185.37,253.32,1182.16,251.52z M1201.41,248.22c2.54-1.45,4.53-3.46,5.97-6.03
			c1.44-2.57,2.16-5.45,2.16-8.62c0-3.17-0.72-6.04-2.16-8.61c-1.44-2.57-3.43-4.58-5.97-6.03c-2.54-1.45-5.38-2.18-8.53-2.18
			s-6,0.73-8.56,2.18c-2.56,1.45-4.57,3.46-6.03,6.03c-1.46,2.57-2.19,5.44-2.19,8.61c0,3.17,0.73,6.05,2.19,8.62
			c1.46,2.57,3.47,4.58,6.03,6.03c2.56,1.44,5.41,2.17,8.56,2.17S1198.87,249.66,1201.41,248.22z"/>
		<path id="XMLID_111_" class="st0" d="M1252.96,252.77c-2.71-0.96-4.8-2.24-6.28-3.83l1.65-3.31c1.44,1.47,3.36,2.66,5.74,3.57
			c2.39,0.91,4.85,1.36,7.39,1.36c3.56,0,6.24-0.67,8.02-2c1.78-1.34,2.67-3.06,2.67-5.19c0-1.62-0.49-2.92-1.45-3.89
			c-0.97-0.96-2.15-1.71-3.55-2.23c-1.4-0.52-3.36-1.09-5.85-1.71c-3-0.77-5.39-1.52-7.17-2.23c-1.78-0.72-3.31-1.81-4.58-3.28
			c-1.27-1.47-1.91-3.46-1.91-5.97c0-2.05,0.53-3.92,1.59-5.6c1.06-1.68,2.69-3.03,4.89-4.03c2.2-1.01,4.93-1.51,8.19-1.51
			c2.27,0,4.5,0.32,6.68,0.96c2.18,0.64,4.06,1.52,5.66,2.64l-1.42,3.42c-1.67-1.12-3.45-1.96-5.35-2.53
			c-1.9-0.56-3.75-0.84-5.57-0.84c-3.49,0-6.11,0.69-7.88,2.06c-1.76,1.38-2.65,3.14-2.65,5.31c0,1.62,0.49,2.93,1.45,3.91
			c0.97,0.99,2.18,1.74,3.64,2.27c1.46,0.52,3.42,1.09,5.89,1.71c2.92,0.74,5.28,1.46,7.08,2.18c1.8,0.71,3.33,1.8,4.58,3.25
			c1.25,1.45,1.88,3.41,1.88,5.89c0,2.05-0.54,3.92-1.62,5.6c-1.08,1.68-2.74,3.02-4.97,4c-2.24,0.99-4.98,1.48-8.25,1.48
			C1258.5,254.22,1255.67,253.74,1252.96,252.77z"/>
	</g>
	<polygon id="XMLID_105_" class="st1" points="16.03,238.06 186.61,24.83 357.2,238.06 	"/>
	<polygon id="XMLID_104_" class="st1" points="92.21,42.05 92.2,105.52 142.83,42.05 	"/>
	<polygon id="XMLID_102_" class="st2" points="121.55,253.98 254.78,87.45 388,253.98 	"/>
	<g id="XMLID_305_">
		<path id="XMLID_306_" class="st3" d="M487.6,107.86h-40.42l-8.37,20.4h-11.2l34.44-81.64h10.76l34.54,81.64h-11.4L487.6,107.86z
			 M483.79,98.53l-16.4-40l-16.41,40H483.79z"/>
		<path id="XMLID_309_" class="st3" d="M584.08,46.63v81.64h-8.91l-45.63-60.87v60.87h-10.87V46.63h8.91l45.63,60.88V46.63H584.08z"
			/>
		<path id="XMLID_311_" class="st3" d="M655.36,107.86h-40.42l-8.37,20.4h-11.2l34.44-81.64h10.76l34.54,81.64h-11.4L655.36,107.86z
			 M651.55,98.53l-16.4-40l-16.41,40H651.55z"/>
		<path id="XMLID_314_" class="st3" d="M692.03,126.34c-5.32-1.9-9.51-4.38-12.55-7.4l4.02-9.1c2.89,2.8,6.61,5.08,11.14,6.82
			c4.52,1.76,9.18,2.63,13.96,2.63c6.3,0,11.01-1.15,14.12-3.45c3.11-2.29,4.68-5.34,4.68-9.15c0-2.8-0.86-5.08-2.56-6.82
			c-1.7-1.75-3.8-3.09-6.3-4.02s-6.03-1.98-10.59-3.15c-5.72-1.47-10.34-2.95-13.85-4.43c-3.52-1.47-6.52-3.75-9.02-6.82
			c-2.5-3.07-3.75-7.2-3.75-12.41c0-4.36,1.07-8.29,3.21-11.78c2.13-3.5,5.38-6.3,9.73-8.4c4.34-2.1,9.74-3.15,16.19-3.15
			c4.49,0,8.91,0.63,13.25,1.87c4.34,1.24,8.08,3.03,11.2,5.36l-3.59,9.33c-3.19-2.17-6.6-3.82-10.21-4.95
			c-3.63-1.13-7.18-1.69-10.65-1.69c-6.16,0-10.77,1.21-13.85,3.62c-3.08,2.41-4.62,5.51-4.62,9.33c0,2.79,0.87,5.07,2.6,6.81
			c1.74,1.76,3.89,3.11,6.47,4.08c2.57,0.98,6.06,2,10.48,3.09c5.72,1.48,10.32,2.96,13.8,4.43c3.48,1.48,6.46,3.73,8.96,6.77
			c2.5,3.03,3.75,7.11,3.75,12.24c0,4.28-1.09,8.18-3.26,11.72c-2.18,3.54-5.48,6.34-9.89,8.4c-4.42,2.06-9.85,3.08-16.3,3.08
			C702.88,129.2,697.35,128.25,692.03,126.34z"/>
		<path id="XMLID_316_" class="st3" d="M767.92,56.77h-26.08V46.63h62.91v10.15h-26.08v71.49h-10.76V56.77z"/>
		<path id="XMLID_318_" class="st3" d="M829.1,123.78c-6.16-3.62-10.99-8.61-14.5-14.99c-3.51-6.38-5.27-13.49-5.27-21.34
			c0-7.85,1.76-14.97,5.27-21.34c3.51-6.37,8.35-11.37,14.5-14.99c6.16-3.61,13.08-5.42,20.75-5.42c7.61,0,14.49,1.81,20.64,5.42
			c6.16,3.62,10.98,8.6,14.45,14.93c3.48,6.34,5.21,13.48,5.21,21.4c0,7.93-1.73,15.06-5.21,21.4s-8.3,11.31-14.45,14.93
			c-6.16,3.62-13.03,5.42-20.64,5.42C842.17,129.2,835.25,127.39,829.1,123.78z M864.9,114.74c4.46-2.72,7.97-6.47,10.54-11.26
			c2.57-4.78,3.85-10.13,3.85-16.04c0-5.9-1.28-11.26-3.85-16.03c-2.58-4.78-6.09-8.53-10.54-11.26c-4.46-2.72-9.47-4.08-15.05-4.08
			s-10.63,1.36-15.16,4.08c-4.52,2.72-8.08,6.47-10.64,11.26c-2.57,4.77-3.86,10.13-3.86,16.03c0,5.91,1.29,11.26,3.86,16.04
			c2.57,4.78,6.12,8.53,10.64,11.26c4.53,2.71,9.58,4.08,15.16,4.08S860.44,117.46,864.9,114.74z M856.48,24.83h13.25l-18.25,15.16
			h-9.78L856.48,24.83z"/>
		<path id="XMLID_322_" class="st3" d="M959.7,54.21c5.65,5.06,8.48,12.02,8.48,20.88s-2.82,15.82-8.48,20.87
			c-5.65,5.06-13.4,7.58-23.24,7.58h-18.8v24.72h-10.87V46.63h29.66C946.3,46.63,954.05,49.16,959.7,54.21z M951.87,88.67
			c3.62-3.15,5.43-7.68,5.43-13.58c0-5.91-1.81-10.44-5.43-13.59c-3.62-3.15-8.87-4.73-15.75-4.73h-18.47V93.4h18.47
			C943.01,93.4,948.25,91.82,951.87,88.67z"/>
		<path id="XMLID_325_" class="st3" d="M992.18,119.87c-5.65-6.22-8.48-15.16-8.48-26.82V46.63h10.87v45.95
			c0,17.49,7.13,26.24,21.41,26.24c6.95,0,12.28-2.16,15.97-6.47c3.7-4.32,5.54-10.9,5.54-19.77V46.63h10.54v46.42
			c0,11.74-2.83,20.7-8.48,26.88c-5.65,6.19-13.54,9.27-23.69,9.27S997.84,126.09,992.18,119.87z"/>
		<path id="XMLID_327_" class="st3" d="M1070.3,46.63h10.87v71.49h41.18v10.15h-52.04V46.63z"/>
		<path id="XMLID_329_" class="st3" d="M1147.01,123.78c-6.16-3.62-10.99-8.61-14.5-14.99c-3.51-6.38-5.27-13.49-5.27-21.34
			c0-7.85,1.76-14.97,5.27-21.34c3.51-6.37,8.35-11.37,14.5-14.99c6.16-3.61,13.08-5.42,20.75-5.42c7.61,0,14.49,1.81,20.64,5.42
			c6.16,3.62,10.98,8.6,14.45,14.93c3.48,6.34,5.21,13.48,5.21,21.4c0,7.93-1.73,15.06-5.21,21.4c-3.48,6.34-8.3,11.31-14.45,14.93
			c-6.16,3.62-13.03,5.42-20.64,5.42C1160.08,129.2,1153.16,127.39,1147.01,123.78z M1182.81,114.74
			c4.46-2.72,7.97-6.47,10.54-11.26c2.57-4.78,3.85-10.13,3.85-16.04c0-5.9-1.28-11.26-3.85-16.03c-2.58-4.78-6.09-8.53-10.54-11.26
			c-4.46-2.72-9.47-4.08-15.05-4.08s-10.63,1.36-15.16,4.08c-4.52,2.72-8.08,6.47-10.64,11.26c-2.57,4.77-3.86,10.13-3.86,16.03
			c0,5.91,1.29,11.26,3.86,16.04c2.57,4.78,6.12,8.53,10.64,11.26c4.53,2.71,9.58,4.08,15.16,4.08S1178.35,117.46,1182.81,114.74z"
			/>
		<path id="XMLID_332_" class="st3" d="M1230.29,126.34c-5.32-1.9-9.51-4.38-12.55-7.4l4.02-9.1c2.89,2.8,6.61,5.08,11.14,6.82
			c4.52,1.76,9.18,2.63,13.96,2.63c6.3,0,11.01-1.15,14.12-3.45c3.11-2.29,4.68-5.34,4.68-9.15c0-2.8-0.86-5.08-2.56-6.82
			s-3.8-3.09-6.3-4.02s-6.03-1.98-10.59-3.15c-5.72-1.47-10.34-2.95-13.85-4.43c-3.52-1.47-6.52-3.75-9.02-6.82
			c-2.5-3.07-3.75-7.2-3.75-12.41c0-4.36,1.07-8.29,3.21-11.78c2.13-3.5,5.38-6.3,9.73-8.4s9.74-3.15,16.19-3.15
			c4.49,0,8.91,0.63,13.25,1.87s8.08,3.03,11.2,5.36l-3.59,9.33c-3.19-2.17-6.6-3.82-10.21-4.95c-3.63-1.13-7.18-1.69-10.65-1.69
			c-6.16,0-10.77,1.21-13.85,3.62c-3.08,2.41-4.62,5.51-4.62,9.33c0,2.79,0.87,5.07,2.6,6.81c1.74,1.76,3.89,3.11,6.47,4.08
			c2.57,0.98,6.06,2,10.48,3.09c5.72,1.48,10.32,2.96,13.8,4.43c3.48,1.48,6.46,3.73,8.96,6.77c2.5,3.03,3.75,7.11,3.75,12.24
			c0,4.28-1.09,8.18-3.26,11.72c-2.18,3.54-5.48,6.34-9.89,8.4c-4.42,2.06-9.85,3.08-16.3,3.08
			C1241.14,129.2,1235.61,128.25,1230.29,126.34z"/>
	</g>
</g>
</svg>
