<?xml version="1.0" encoding="utf-8"?>
<!-- Generator: Adobe Illustrator 24.2.0, SVG Export Plug-In . SVG Version: 6.00 Build 0)  -->
<svg version="1.1" id="Layer_1" xmlns="http://www.w3.org/2000/svg" xmlns:xlink="http://www.w3.org/1999/xlink" x="0px" y="0px"
	 viewBox="0 0 1120.3 1059" style="enable-background:new 0 0 1120.3 1059;" xml:space="preserve">
<style type="text/css">
	.st0{stroke:#231F20;stroke-width:2;stroke-miterlimit:10;}
	.st1{fill:#4D6CA1;}
	.st2{fill:#F8A367;}
</style>
<g id="XMLID_33_">
	<g>
		<path d="M101,762.1h-52l-11.4,25.2h-7l41.3-89.7h6.5l41.3,89.7h-7.1L101,762.1z M98.5,756.6l-23.6-51.8l-23.5,51.8H98.5z"/>
		<path d="M210.9,697.7v89.7h-5.4l-61.1-77.9v77.9h-6.5v-89.7h5.5l61,77.9v-77.9H210.9z"/>
		<path d="M302.4,762.1h-52L239,787.4h-7.1l41.3-89.7h6.5l41.3,89.7h-7L302.4,762.1z M299.9,756.6l-23.6-51.8l-23.4,51.8H299.9z"/>
		<path d="M336.5,775.8l3-4.9c6.1,6.4,17.5,11.3,29.6,11.3c17.9,0,25.9-7.8,25.9-17.5c0-26.9-56-10.8-56-43.8
			c0-12.7,9.7-23.8,31.8-23.8c9.9,0,20.1,3.1,27,8.1l-2.4,5.3c-7.4-5.1-16.5-7.6-24.6-7.6c-17.4,0-25.2,8.1-25.2,17.9
			c0,26.9,56,11,56,43.6c0,12.7-10.1,23.7-32.3,23.7C355.8,788,343,783,336.5,775.8z"/>
		<path d="M457.5,703.6h-32.3v-5.9h71.1v5.9h-32.3v83.8h-6.5L457.5,703.6L457.5,703.6z"/>
		<path d="M514,742.5c0-26,19.9-45.5,46.6-45.5c26.7,0,46.6,19.3,46.6,45.5c0,26.1-20,45.5-46.6,45.5C533.9,788,514,768.5,514,742.5
			z M600.7,742.5c0-22.7-17.2-39.5-40-39.5c-22.9,0-40.1,16.8-40.1,39.5s17.2,39.5,40.1,39.5C583.5,782,600.7,765.2,600.7,742.5z
			 M571.2,675.3h9.2l-20.1,15.1h-6.9L571.2,675.3z"/>
		<path d="M706.5,727.9c0,18.8-13.6,30.1-36.1,30.1h-25.6v29.3h-6.5v-89.7h32.2C692.9,697.7,706.5,709,706.5,727.9z M699.8,727.9
			c0-15.5-10.3-24.3-29.5-24.3h-25.6v48.6h25.6C689.6,752.1,699.8,743.3,699.8,727.9z"/>
		<path d="M736.5,749.3v-51.6h6.5v51.4c0,22.4,10.8,32.9,29.5,32.9c18.7,0,29.3-10.5,29.3-32.9v-51.4h6.5v51.6
			c0,25.6-13.7,38.7-36,38.7C750.1,788,736.5,775,736.5,749.3z"/>
		<path d="M843.1,697.7h6.5v83.8h51.6v5.9h-58.2L843.1,697.7L843.1,697.7z"/>
		<path d="M913.8,742.5c0-26,19.9-45.5,46.6-45.5c26.7,0,46.6,19.3,46.6,45.5c0,26.1-20,45.5-46.6,45.5
			C933.7,788,913.8,768.5,913.8,742.5z M1000.4,742.5c0-22.7-17.2-39.5-40-39.5c-22.9,0-40.1,16.8-40.1,39.5s17.2,39.5,40.1,39.5
			C983.3,782,1000.4,765.2,1000.4,742.5z"/>
		<path d="M1028.3,775.8l2.9-4.9c6.2,6.4,17.6,11.3,29.6,11.3c17.9,0,25.9-7.8,25.9-17.5c0-26.9-56-10.8-56-43.8
			c0-12.7,9.7-23.8,31.8-23.8c9.9,0,20.1,3.1,27,8.1l-2.4,5.3c-7.4-5.1-16.5-7.6-24.6-7.6c-17.4,0-25.2,8.1-25.2,17.9
			c0,26.9,56,11,56,43.6c0,12.7-10.1,23.7-32.3,23.7C1047.7,788,1034.9,783,1028.3,775.8z"/>
	</g>
	<g>
		<path class="st0" d="M69.7,878.2h-30L33,892.9h-2.6l23.2-50.1h2.4l23.2,50.1h-2.7L69.7,878.2z M68.8,876.1l-14-30.5l-14.1,30.5
			H68.8z"/>
		<path class="st0" d="M124.4,844.3h19.3c15.9,0,26.5,10.5,26.5,25s-10.7,25-26.5,25h-19.3V844.3z M143.6,892.1
			c14.8,0,24.3-9.6,24.3-22.8s-9.4-22.8-24.3-22.8h-16.7v45.6L143.6,892.1L143.6,892.1z"/>
		<path class="st0" d="M266.1,894.3l-0.1-45.1l-22,38.2h-1.3l-22-38v45h-2.4v-50.1h2l23,40l23-40h2l0.1,50.1H266.1z"/>
		<path class="st0" d="M318.8,844.3h2.4v50.1h-2.4V844.3z"/>
		<path class="st0" d="M416.6,844.3v50.1h-2l-35.5-45.6v45.6h-2.4v-50.1h2l35.5,45.6v-45.6H416.6z"/>
		<path class="st0" d="M469,844.3h2.4v50.1H469V844.3z"/>
		<path class="st0" d="M516.5,887.7l1.3-1.7c3.2,3.7,9.6,6.5,16.5,6.5c10.5,0,15.2-4.8,15.2-10.6c0-16-31.5-6.5-31.5-25
			c0-6.7,5.2-12.9,17.1-12.9c5.5,0,11.1,1.8,14.8,4.6l-1.1,1.9c-4-2.9-9.2-4.4-13.7-4.4c-10.2,0-14.8,4.9-14.8,10.7
			c0,16.1,31.5,6.8,31.5,25c0,6.8-5.4,12.8-17.5,12.8C527,894.6,520,891.8,516.5,887.7z"/>
		<path class="st0" d="M608.8,846.5h-18.4v-2.2h39.1v2.2h-18.4v47.8h-2.4V846.5z"/>
		<path class="st0" d="M706.6,894.3l-12.4-17.2c-1.7,0.3-3.5,0.4-5.4,0.4h-15v16.8h-2.4v-50.1h17.4c12.5,0,19.9,6.2,19.9,16.6
			c0,8.1-4.4,13.6-12,15.7l12.8,17.8H706.6z M688.9,875.3c11.2,0,17.4-5.2,17.4-14.5c0-9.2-6.2-14.4-17.4-14.4h-15.1v28.8
			L688.9,875.3L688.9,875.3z"/>
		<path class="st0" d="M782.8,879.7h-30l-6.7,14.7h-2.7l23.2-50.1h2.4l23.2,50.1h-2.7L782.8,879.7z M781.9,877.6l-14-30.5
			l-14.1,30.5H781.9z"/>
		<path class="st0" d="M829.2,869.3c0-14.5,11.1-25.3,25.8-25.3c6.8,0,13,2.2,17.4,6.7l-1.5,1.6c-4.4-4.3-9.9-6-15.8-6
			c-13.4,0-23.5,10-23.5,23.1c0,13.1,10.1,23.1,23.5,23.1c5.9,0,11.4-1.8,15.8-6.1l1.5,1.6c-4.4,4.5-10.6,6.7-17.4,6.7
			C840.2,894.6,829.2,883.8,829.2,869.3z"/>
		<path class="st0" d="M917.4,844.3h2.4v50.1h-2.4V844.3z"/>
		<path class="st0" d="M963.3,869.3c0-14.5,11.1-25.3,25.8-25.3c14.8,0,25.9,10.8,25.9,25.3s-11.1,25.3-25.9,25.3
			C974.4,894.6,963.3,883.8,963.3,869.3z M1012.6,869.3c0-13.2-10.1-23.1-23.5-23.1c-13.3,0-23.4,9.9-23.4,23.1s10.1,23.1,23.4,23.1
			C1002.5,892.4,1012.6,882.5,1012.6,869.3z M995.5,832.1h3.9l-10.9,8.1h-2.9L995.5,832.1z"/>
		<path class="st0" d="M1092.3,844.3v50.1h-2l-35.6-45.6v45.6h-2.4v-50.1h2l35.6,45.6v-45.6H1092.3z"/>
	</g>
	<g>
		<path class="st0" d="M29.5,929.5h19.3c15.9,0,26.5,10.5,26.5,25s-10.7,25-26.5,25H29.5V929.5z M48.7,977.4
			c14.8,0,24.3-9.6,24.3-22.8s-9.4-22.8-24.3-22.8H31.9v45.6L48.7,977.4L48.7,977.4z"/>
		<path class="st0" d="M165.3,977.4v2.2h-33.8v-50.1h32.8v2.2h-30.4v21.3h27.2v2.2h-27.2v22.1L165.3,977.4L165.3,977.4z"/>
		<path class="st0" d="M240.9,954.5c0-14.5,11.1-25.3,25.8-25.3c6.8,0,13,2.2,17.4,6.7l-1.5,1.6c-4.4-4.3-9.9-6-15.8-6
			c-13.4,0-23.5,10-23.5,23.1c0,13.1,10.1,23.1,23.5,23.1c5.9,0,11.4-1.8,15.8-6.1l1.5,1.6c-4.4,4.5-10.6,6.7-17.4,6.7
			C252,979.9,240.9,969.1,240.9,954.5z"/>
		<path class="st0" d="M333.7,954.5c0-14.5,11.1-25.3,25.8-25.3c14.8,0,25.9,10.8,25.9,25.3s-11.1,25.3-25.9,25.3
			C344.8,979.9,333.7,969.1,333.7,954.5z M383,954.5c0-13.2-10.1-23.1-23.5-23.1c-13.3,0-23.4,9.9-23.4,23.1s10.1,23.1,23.4,23.1
			C372.9,977.7,383,967.8,383,954.5z"/>
		<path class="st0" d="M483,929.5v50.1h-2L445.4,934v45.6H443v-50.1h2l35.5,45.6v-45.6H483z"/>
		<path class="st0" d="M539,972.9l1.3-1.7c3.2,3.7,9.6,6.5,16.5,6.5c10.5,0,15.2-4.8,15.2-10.6c0-16-31.5-6.5-31.5-25
			c0-6.7,5.2-12.9,17.1-12.9c5.5,0,11.1,1.8,14.8,4.6l-1.1,1.9c-4-2.9-9.2-4.4-13.7-4.4c-10.2,0-14.8,4.9-14.8,10.7
			c0,16.1,31.5,6.8,31.5,25c0,6.8-5.4,12.8-17.5,12.8C549.5,979.9,542.5,977,539,972.9z"/>
		<path class="st0" d="M622.3,954.5c0-14.5,11.1-25.3,25.8-25.3c14.8,0,25.9,10.8,25.9,25.3s-11.1,25.3-25.9,25.3
			C633.4,979.9,622.3,969.1,622.3,954.5z M671.6,954.5c0-13.2-10.1-23.1-23.5-23.1c-13.3,0-23.4,9.9-23.4,23.1s10.1,23.1,23.4,23.1
			C661.5,977.7,671.6,967.8,671.6,954.5z"/>
		<path class="st0" d="M761.1,979.6l-12.4-17.2c-1.7,0.3-3.5,0.4-5.4,0.4h-15v16.8h-2.4v-50.1h17.4c12.5,0,19.9,6.2,19.9,16.6
			c0,8.1-4.4,13.6-12,15.7l12.8,17.8H761.1z M743.4,960.6c11.2,0,17.4-5.2,17.4-14.5c0-9.2-6.2-14.4-17.4-14.4h-15.1v28.8
			L743.4,960.6L743.4,960.6z"/>
		<path class="st0" d="M817.9,954.5c0-14.5,11.1-25.3,25.8-25.3c6.8,0,13,2.2,17.4,6.7l-1.5,1.6c-4.4-4.3-9.9-6-15.8-6
			c-13.4,0-23.5,10-23.5,23.1c0,13.1,10.1,23.1,23.5,23.1c5.9,0,11.4-1.8,15.8-6.1l1.5,1.6c-4.4,4.5-10.6,6.7-17.4,6.7
			C829,979.9,817.9,969.1,817.9,954.5z"/>
		<path class="st0" d="M910.8,929.5h2.4v50.1h-2.4V929.5z"/>
		<path class="st0" d="M963.6,954.5c0-14.5,11.1-25.3,25.8-25.3c14.8,0,25.9,10.8,25.9,25.3s-11.1,25.3-25.9,25.3
			C974.7,979.9,963.6,969.1,963.6,954.5z M1012.9,954.5c0-13.2-10.1-23.1-23.5-23.1c-13.3,0-23.4,9.9-23.4,23.1s10.1,23.1,23.4,23.1
			C1002.8,977.7,1012.9,967.8,1012.9,954.5z"/>
		<path class="st0" d="M1057.7,972.9l1.3-1.7c3.2,3.7,9.6,6.5,16.5,6.5c10.5,0,15.2-4.8,15.2-10.6c0-16-31.5-6.5-31.5-25
			c0-6.7,5.2-12.9,17.1-12.9c5.5,0,11.1,1.8,14.8,4.6l-1.1,1.9c-4-2.9-9.2-4.4-13.7-4.4c-10.2,0-14.8,4.9-14.8,10.7
			c0,16.1,31.5,6.8,31.5,25c0,6.8-5.4,12.8-17.4,12.8C1068.2,979.9,1061.2,977,1057.7,972.9z"/>
	</g>
	<polygon id="XMLID_210_" class="st1" points="26.1,559 446.7,33.2 867.3,559 	"/>
	<polygon id="XMLID_209_" class="st1" points="213.9,75.7 213.9,232.2 338.8,75.7 	"/>
	<polygon id="XMLID_207_" class="st2" points="397.6,621.8 745.9,186.5 1094.2,621.8 	"/>
</g>
</svg>
