<?xml version="1.0" encoding="utf-8"?>
<!-- Generator: Adobe Illustrator 24.2.0, SVG Export Plug-In . SVG Version: 6.00 Build 0)  -->
<svg version="1.1" id="Layer_1" xmlns="http://www.w3.org/2000/svg" xmlns:xlink="http://www.w3.org/1999/xlink" x="0px" y="0px"
	 viewBox="0 0 151.4 140.3" style="enable-background:new 0 0 151.4 140.3;" xml:space="preserve">
<style type="text/css">
	.st0{stroke:#000000;stroke-width:0.25;stroke-miterlimit:10;}
	.st1{fill:#696969;}
	.st2{fill:#B6B6B6;}
</style>
<path d="M20.5,104.3h-6.3l-1.4,3H12l5-10.8h0.8l5,10.8h-0.9L20.5,104.3z M20.2,103.6l-2.8-6.2l-2.8,6.2H20.2z"/>
<path d="M33.7,96.5v10.8H33L25.7,98v9.4h-0.8V96.5h0.7l7.3,9.4v-9.4H33.7z"/>
<path d="M44.7,104.3h-6.3l-1.4,3h-0.8l5-10.8H42l5,10.8h-0.8L44.7,104.3z M44.4,103.6l-2.8-6.2l-2.8,6.2H44.4z"/>
<path d="M48.8,106l0.4-0.6c1,0.9,2.2,1.4,3.6,1.3c2.2,0,3.1-0.9,3.1-2.1c0-3.2-6.7-1.3-6.7-5.3c0-1.5,1.2-2.9,3.8-2.9
	c1.2,0,2.3,0.3,3.3,1l-0.3,0.6c-0.9-0.6-1.9-0.9-3-0.9c-2.1,0-3,1-3,2.2c0,3.2,6.7,1.3,6.7,5.2c0,1.5-1.2,2.9-3.9,2.9
	C51.3,107.5,49.9,107,48.8,106z"/>
<path d="M63.4,97.2h-3.9v-0.7h8.6v0.7h-3.9v10.1h-0.8L63.4,97.2z"/>
<path d="M70.2,101.9c-0.1-3.1,2.4-5.7,5.5-5.8c3.1-0.1,5.7,2.4,5.8,5.5c0.1,3.1-2.4,5.7-5.5,5.8c0,0-0.1,0-0.1,0
	c-3,0.1-5.5-2.2-5.6-5.2C70.2,102.1,70.2,102,70.2,101.9z M80.6,101.9c0-2.7-2.1-4.9-4.7-4.9c-2.7,0-4.9,2.1-4.9,4.7
	c0,2.7,2.1,4.9,4.7,4.9c0,0,0,0,0.1,0c2.6,0.1,4.7-1.9,4.8-4.5C80.6,102.1,80.6,102,80.6,101.9z M77.1,93.8h1.1l-2.4,1.8h-0.8
	L77.1,93.8z"/>
<path d="M93.3,100.2c0,2.3-1.6,3.6-4.3,3.6h-3.1v3.5h-0.8V96.5H89C91.7,96.5,93.3,97.9,93.3,100.2z M92.5,100.2
	c0-1.9-1.2-2.9-3.5-2.9h-3.1v5.8H89C91.3,103.1,92.5,102,92.5,100.2z"/>
<path d="M97,102.8v-6.2h0.8v6.2c0,2.7,1.3,4,3.6,4s3.5-1.3,3.5-4v-6.2h0.8v6.2c0,3.1-1.7,4.7-4.3,4.7S97,105.8,97,102.8z"/>
<path d="M109.8,96.5h0.8v10.1h6.2v0.7h-7V96.5z"/>
<path d="M118.3,101.9c-0.1-3.1,2.4-5.7,5.5-5.8c3.1-0.1,5.7,2.4,5.8,5.5c0.1,3.1-2.4,5.7-5.5,5.8c0,0-0.1,0-0.1,0
	c-3,0.1-5.5-2.2-5.6-5.2C118.3,102.1,118.3,102,118.3,101.9z M128.7,101.9c0-2.7-2.1-4.9-4.7-4.9c-2.7,0-4.9,2.1-4.9,4.7
	c0,2.7,2.1,4.9,4.7,4.9c0,0,0,0,0.1,0c2.6,0.1,4.7-1.9,4.8-4.5C128.7,102.1,128.7,102,128.7,101.9L128.7,101.9z"/>
<path d="M132.1,106l0.4-0.6c1,0.9,2.3,1.4,3.6,1.3c2.1,0,3.1-0.9,3.1-2.1c0-3.2-6.7-1.3-6.7-5.3c0-1.5,1.2-2.9,3.8-2.9
	c1.2,0,2.3,0.3,3.3,1l-0.3,0.6c-0.9-0.6-1.9-0.9-3-0.9c-2.1,0-3,1-3,2.2c0,3.2,6.7,1.3,6.7,5.2c0,1.5-1.2,2.9-3.9,2.9
	C134.6,107.5,133.1,107,132.1,106z"/>
<path class="st0" d="M16.7,118.3h-3.6l-0.8,1.7H12l2.8-6H15l2.8,6h-0.3L16.7,118.3z M16.6,118l-1.7-3.7l-1.7,3.7L16.6,118z"/>
<path class="st0" d="M23.3,114.2h2.3c1.7,0,3,1.3,3,3s-1.3,3-3,3h-2.3V114.2z M25.6,119.9c1.5,0.1,2.8-1.1,2.9-2.6s-1.1-2.8-2.6-2.9
	c-0.1,0-0.2,0-0.3,0h-2v5.5L25.6,119.9z"/>
<path class="st0" d="M40.3,120.2v-5.4l-2.6,4.6h-0.2l-2.7-4.6v5.4h-0.3v-6h0.2l2.8,4.8l2.8-4.8h0.2v6L40.3,120.2z"/>
<path class="st0" d="M46.7,114.2H47v6h-0.3L46.7,114.2z"/>
<path class="st0" d="M58.5,114.2v6h-0.2l-4.3-5.5v5.5h-0.3v-6h0.2l4.3,5.5v-5.5H58.5z"/>
<path class="st0" d="M64.8,114.2h0.3v6h-0.3V114.2z"/>
<path class="st0" d="M70.5,119.4l0.2-0.2c0.5,0.5,1.3,0.8,2,0.8c1.3,0,1.8-0.6,1.8-1.3c0-1.9-3.8-0.8-3.8-3c0-0.8,0.6-1.6,2-1.6
	c0.6,0,1.3,0.2,1.8,0.6l-0.1,0.2c-0.5-0.3-1.1-0.5-1.7-0.5c-1.2,0-1.8,0.6-1.8,1.3c0,1.9,3.8,0.8,3.8,3c0,0.8-0.7,1.5-2.1,1.5
	C71.8,120.3,71,120,70.5,119.4z"/>
<path class="st0" d="M81.6,114.5h-2.2v-0.3h4.7v0.3h-2.2v5.8h-0.3L81.6,114.5z"/>
<path class="st0" d="M93.4,120.2l-1.5-2.1c-0.2,0-0.4,0-0.7,0h-1.8v2h-0.3v-6h2.1c1.5,0,2.4,0.7,2.4,2c0,0.9-0.6,1.7-1.4,1.9
	l1.5,2.2L93.4,120.2z M91.2,117.9c1.3,0,2.1-0.6,2.1-1.7s-0.7-1.7-2.1-1.7h-1.8v3.5H91.2z"/>
<path class="st0" d="M102.5,118.4h-3.6l-0.8,1.8h-0.3l2.8-6h0.3l2.8,6h-0.3L102.5,118.4z M102.4,118.2l-1.7-3.7l-1.7,3.7H102.4z"/>
<path class="st0" d="M108.1,117.2c0-1.7,1.3-3,3-3c0,0,0.1,0,0.1,0c0.8,0,1.5,0.3,2.1,0.8l-0.2,0.2c-0.5-0.5-1.2-0.8-1.9-0.7
	c-1.5,0-2.8,1.2-2.8,2.8c0,1.5,1.2,2.8,2.8,2.8c0,0,0,0,0,0c0.7,0,1.4-0.2,1.9-0.7l0.2,0.2c-0.6,0.5-1.3,0.8-2.1,0.8
	c-1.7,0.1-3-1.2-3.1-2.9C108.1,117.3,108.1,117.3,108.1,117.2z"/>
<path class="st0" d="M118.7,114.2h0.3v6h-0.3V114.2z"/>
<path class="st0" d="M124.3,117.2c-0.1-1.7,1.3-3.2,3-3.2c1.7-0.1,3.2,1.3,3.2,3c0.1,1.7-1.3,3.2-3,3.2c0,0-0.1,0-0.1,0
	c-1.7,0.1-3-1.2-3.1-2.9C124.3,117.3,124.3,117.2,124.3,117.2z M130.2,117.2c0-1.6-1.2-2.8-2.8-2.9c-1.6,0-2.8,1.2-2.9,2.8
	c0,1.6,1.2,2.8,2.8,2.9c0,0,0,0,0,0c1.5,0,2.8-1.1,2.8-2.6C130.2,117.3,130.2,117.2,130.2,117.2z M128.1,112.7h0.5l-1.3,1h-0.3
	L128.1,112.7z"/>
<path class="st0" d="M139.8,114.2v6h-0.2l-4.3-5.5v5.5H135v-6h0.2l4.3,5.5v-5.5H139.8z"/>
<path class="st0" d="M11.9,124.4h2.3c1.7,0,3,1.3,3,3c0,1.7-1.3,3-3,3h-2.3V124.4z M14.2,130.2c1.5,0.1,2.8-1.1,2.9-2.6
	c0.1-1.5-1.1-2.8-2.6-2.9c-0.1,0-0.2,0-0.3,0h-2v5.5H14.2z"/>
<path class="st0" d="M28.2,130.2v0.3h-4.1v-6h4v0.3h-3.7v2.6h3.3v0.3h-3.3v2.7L28.2,130.2z"/>
<path class="st0" d="M37.3,127.5c0-1.7,1.3-3,3-3c0,0,0.1,0,0.1,0c0.8,0,1.5,0.3,2.1,0.8l-0.2,0.2c-0.5-0.5-1.2-0.8-1.9-0.7
	c-1.5,0-2.8,1.2-2.8,2.8c0,1.5,1.2,2.8,2.8,2.8c0,0,0,0,0,0c0.7,0,1.4-0.2,1.9-0.7l0.2,0.2c-0.6,0.5-1.3,0.8-2.1,0.8
	c-1.7,0.1-3-1.2-3.1-2.9C37.3,127.6,37.3,127.5,37.3,127.5z"/>
<path class="st0" d="M48.5,127.5c-0.1-1.7,1.3-3.2,3-3.2c1.7-0.1,3.2,1.3,3.2,3c0.1,1.7-1.3,3.2-3,3.2c0,0-0.1,0-0.1,0
	c-1.7,0.1-3-1.2-3.1-2.9C48.5,127.5,48.5,127.5,48.5,127.5z M54.4,127.5c0-1.6-1.2-2.8-2.8-2.9c-1.6,0-2.8,1.2-2.9,2.8
	c0,1.6,1.2,2.8,2.8,2.9c0,0,0,0,0,0c1.5,0,2.8-1.1,2.8-2.6C54.4,127.5,54.4,127.5,54.4,127.5z"/>
<path class="st0" d="M66.4,124.4v6h-0.2l-4.3-5.5v5.5h-0.3v-6h0.2l4.3,5.5v-5.5L66.4,124.4z"/>
<path class="st0" d="M73.2,129.7l0.2-0.2c0.5,0.5,1.3,0.8,2,0.8c1.3,0,1.8-0.6,1.8-1.3c0-1.9-3.8-0.8-3.8-3c0-0.8,0.6-1.6,2.1-1.6
	c0.6,0,1.3,0.2,1.8,0.6l-0.1,0.2c-0.5-0.3-1.1-0.5-1.6-0.5c-1.2,0-1.8,0.6-1.8,1.3c0,1.9,3.8,0.8,3.8,3c0,0.8-0.6,1.5-2.1,1.5
	C74.5,130.5,73.8,130.2,73.2,129.7z"/>
<path class="st0" d="M83.2,127.5c-0.1-1.7,1.3-3.2,3-3.2c1.7-0.1,3.2,1.3,3.2,3c0.1,1.7-1.3,3.2-3,3.2c0,0-0.1,0-0.1,0
	c-1.7,0.1-3-1.2-3.1-2.9C83.2,127.5,83.2,127.5,83.2,127.5z M89.2,127.5c0-1.6-1.2-2.8-2.8-2.9c-1.6,0-2.8,1.2-2.9,2.8
	s1.2,2.8,2.8,2.9c0,0,0,0,0,0c1.5,0,2.8-1.1,2.8-2.6C89.2,127.5,89.2,127.5,89.2,127.5z"/>
<path class="st0" d="M99.9,130.5l-1.5-2.1c-0.2,0-0.4,0-0.7,0H96v2h-0.3v-6h2.1c1.5,0,2.4,0.7,2.4,2c0,0.9-0.6,1.7-1.4,1.9l1.5,2.1
	L99.9,130.5z M97.8,128.2c1.3,0,2.1-0.6,2.1-1.7s-0.7-1.7-2.1-1.7H96v3.5H97.8z"/>
<path class="st0" d="M106.8,127.5c0-1.7,1.3-3,3-3c0,0,0.1,0,0.1,0c0.8,0,1.5,0.3,2.1,0.8l-0.2,0.2c-0.5-0.5-1.2-0.8-1.9-0.7
	c-1.5,0-2.8,1.2-2.8,2.8s1.2,2.8,2.8,2.8c0,0,0,0,0,0c0.7,0,1.4-0.2,1.9-0.7l0.2,0.2c-0.6,0.5-1.3,0.8-2.1,0.8
	c-1.7,0.1-3-1.2-3.1-2.9C106.8,127.6,106.8,127.5,106.8,127.5z"/>
<path class="st0" d="M117.9,124.4h0.3v6h-0.3V124.4z"/>
<path class="st0" d="M124.3,127.5c-0.1-1.7,1.3-3.2,3-3.2c1.7-0.1,3.2,1.3,3.2,3c0.1,1.7-1.3,3.2-3,3.2c0,0-0.1,0-0.1,0
	c-1.7,0.1-3-1.2-3.1-2.9C124.3,127.5,124.3,127.5,124.3,127.5z M130.2,127.5c0-1.6-1.2-2.8-2.8-2.9c-1.6,0-2.8,1.2-2.9,2.8
	s1.2,2.8,2.8,2.9c0,0,0,0,0,0c1.5,0,2.8-1.1,2.8-2.6C130.2,127.5,130.2,127.5,130.2,127.5z"/>
<path class="st0" d="M135.6,129.7l0.1-0.2c0.5,0.5,1.3,0.8,2,0.8c1.3,0,1.8-0.6,1.8-1.3c0-1.9-3.8-0.8-3.8-3c0-0.8,0.6-1.6,2.1-1.6
	c0.6,0,1.3,0.2,1.8,0.6l-0.1,0.2c-0.5-0.3-1.1-0.5-1.6-0.5c-1.2,0-1.8,0.6-1.8,1.3c0,1.9,3.8,0.8,3.8,3c0,0.8-0.6,1.5-2.1,1.5
	C137,130.5,136.2,130.2,135.6,129.7z"/>
<polygon class="st1" points="11.4,79.8 62.1,16.6 112.7,79.8 "/>
<polygon class="st1" points="34,21.7 34,40.5 49.1,21.7 "/>
<polygon class="st2" points="56.2,87.4 98.1,35 140,87.4 "/>
</svg>
