<?xml version="1.0" encoding="utf-8"?>
<!-- Generator: Adobe Illustrator 24.2.0, SVG Export Plug-In . SVG Version: 6.00 Build 0)  -->
<svg version="1.1" id="Layer_1" xmlns="http://www.w3.org/2000/svg" xmlns:xlink="http://www.w3.org/1999/xlink" x="0px" y="0px"
	 viewBox="0 0 396.45 121.99" style="enable-background:new 0 0 396.45 121.99;" xml:space="preserve">
<style type="text/css">
	.st0{fill:#4D6BA1;}
	.st1{fill:#F9A368;}
	.st2{stroke:#000000;stroke-width:0.5292;stroke-miterlimit:10;}
</style>
<g>
	<g id="XMLID_334_">
		<path id="XMLID_366_" d="M143.11,73.38h-6.45l-1.39,3.15H134l5.29-11.81h1.21l5.29,11.81h-1.29L143.11,73.38z M142.66,72.37
			l-2.78-6.34l-2.78,6.34H142.66z"/>
		<path id="XMLID_363_" d="M155.94,65.08h4.71c1.22,0,2.3,0.25,3.24,0.75c0.94,0.5,1.66,1.2,2.18,2.09
			c0.52,0.89,0.78,1.91,0.78,3.06c0,1.15-0.26,2.17-0.78,3.06c-0.52,0.89-1.25,1.59-2.18,2.09c-0.94,0.5-2.02,0.75-3.24,0.75h-4.71
			V65.08z M160.59,75.8c1.01,0,1.9-0.21,2.66-0.62c0.76-0.41,1.35-0.98,1.77-1.7c0.42-0.72,0.63-1.56,0.63-2.51
			c0-0.94-0.21-1.78-0.63-2.5c-0.42-0.73-1.01-1.29-1.77-1.7c-0.76-0.41-1.65-0.62-2.66-0.62h-3.42v9.65H160.59z"/>
		<path id="XMLID_361_" d="M189.72,65.08v11.81h-1.17v-9.45l-4.55,7.95h-0.58l-4.55-7.89v9.4h-1.17V65.08h1.01l5.03,8.75l4.98-8.75
			H189.72z"/>
		<path id="XMLID_359_" d="M200.88,65.08h1.22v11.81h-1.22V65.08z"/>
		<path id="XMLID_357_" d="M224.14,65.08v11.81h-1.01l-7.44-9.58v9.58h-1.22V65.08h1.01l7.46,9.58v-9.58H224.14z"/>
		<path id="XMLID_355_" d="M235.8,65.08h1.22v11.81h-1.22V65.08z"/>
		<path id="XMLID_353_" d="M248.9,76.56c-0.79-0.28-1.4-0.65-1.83-1.11l0.48-0.96c0.42,0.43,0.98,0.77,1.67,1.04
			c0.69,0.26,1.41,0.4,2.15,0.4c1.04,0,1.81-0.19,2.33-0.58s0.78-0.89,0.78-1.51c0-0.47-0.14-0.85-0.42-1.13
			c-0.28-0.28-0.63-0.5-1.03-0.65c-0.41-0.15-0.98-0.32-1.7-0.5c-0.87-0.23-1.57-0.44-2.08-0.65c-0.52-0.21-0.96-0.53-1.33-0.95
			s-0.55-1.01-0.55-1.74c0-0.6,0.15-1.14,0.46-1.63c0.31-0.49,0.78-0.88,1.42-1.17c0.64-0.29,1.43-0.44,2.38-0.44
			c0.66,0,1.31,0.09,1.94,0.28c0.63,0.19,1.18,0.44,1.65,0.77l-0.41,1c-0.49-0.33-1-0.57-1.55-0.73c-0.55-0.16-1.09-0.24-1.62-0.24
			c-1.01,0-1.78,0.2-2.29,0.6c-0.51,0.4-0.77,0.91-0.77,1.54c0,0.47,0.14,0.85,0.42,1.14c0.28,0.29,0.63,0.51,1.06,0.66
			c0.42,0.15,1,0.32,1.71,0.5c0.85,0.21,1.54,0.42,2.06,0.63c0.52,0.21,0.97,0.52,1.33,0.94c0.36,0.42,0.55,0.99,0.55,1.71
			c0,0.6-0.16,1.14-0.47,1.63c-0.31,0.49-0.8,0.88-1.45,1.16c-0.65,0.29-1.45,0.43-2.4,0.43C250.52,76.98,249.69,76.84,248.9,76.56z
			"/>
		<path id="XMLID_351_" d="M268.56,66.16h-4.07v-1.08h9.36v1.08h-4.07v10.73h-1.22V66.16z"/>
		<path id="XMLID_348_" d="M291.2,76.88l-2.65-3.8c-0.3,0.03-0.61,0.05-0.93,0.05h-3.11v3.74h-1.22V65.08h4.33
			c1.48,0,2.63,0.36,3.47,1.08c0.84,0.72,1.26,1.71,1.26,2.97c0,0.92-0.23,1.7-0.69,2.34c-0.46,0.64-1.11,1.09-1.96,1.37l2.83,4.05
			H291.2z M290.23,71.3c0.61-0.52,0.91-1.24,0.91-2.18c0-0.96-0.3-1.69-0.91-2.2c-0.61-0.51-1.48-0.77-2.63-0.77h-3.08v5.92h3.08
			C288.74,72.08,289.62,71.82,290.23,71.3z"/>
		<path id="XMLID_345_" d="M309.31,73.73h-6.45l-1.39,3.15h-1.27l5.29-11.81h1.21l5.29,11.81h-1.29L309.31,73.73z M308.87,72.72
			l-2.78-6.34l-2.78,6.34H308.87z"/>
		<path id="XMLID_343_" d="M323.31,76.21c-0.92-0.52-1.64-1.23-2.17-2.15c-0.52-0.92-0.79-1.94-0.79-3.08
			c0-1.14,0.26-2.16,0.79-3.08c0.52-0.92,1.25-1.63,2.18-2.15c0.93-0.52,1.96-0.78,3.11-0.78c0.86,0,1.65,0.15,2.38,0.44
			c0.73,0.29,1.35,0.72,1.85,1.28l-0.78,0.79c-0.9-0.93-2.05-1.4-3.42-1.4c-0.92,0-1.75,0.21-2.5,0.64
			c-0.75,0.43-1.34,1.01-1.76,1.75c-0.42,0.74-0.64,1.57-0.64,2.5c0,0.92,0.21,1.75,0.64,2.5c0.42,0.74,1.01,1.33,1.76,1.75
			c0.75,0.43,1.58,0.64,2.5,0.64c1.39,0,2.53-0.47,3.42-1.42l0.78,0.79c-0.51,0.56-1.13,0.99-1.86,1.29
			c-0.73,0.3-1.53,0.45-2.39,0.45C325.27,76.98,324.23,76.73,323.31,76.21z"/>
		<path id="XMLID_341_" d="M340.72,65.08h1.22v11.81h-1.22V65.08z"/>
		<path id="XMLID_337_" d="M354.66,76.2c-0.93-0.52-1.66-1.24-2.18-2.15c-0.52-0.91-0.79-1.93-0.79-3.07c0-1.14,0.26-2.16,0.79-3.07
			c0.52-0.91,1.25-1.63,2.18-2.15c0.93-0.52,1.97-0.78,3.12-0.78s2.18,0.26,3.1,0.78s1.65,1.23,2.18,2.15
			c0.53,0.92,0.79,1.94,0.79,3.08c0,1.14-0.27,2.16-0.79,3.08c-0.53,0.92-1.25,1.63-2.18,2.15c-0.92,0.52-1.95,0.78-3.1,0.78
			S355.59,76.72,354.66,76.2z M360.26,75.24c0.74-0.42,1.32-1.01,1.74-1.75c0.42-0.75,0.63-1.58,0.63-2.51
			c0-0.92-0.21-1.76-0.63-2.5c-0.42-0.75-1-1.33-1.74-1.75c-0.74-0.42-1.57-0.63-2.48-0.63s-1.74,0.21-2.49,0.63
			c-0.74,0.42-1.33,1.01-1.75,1.75c-0.42,0.75-0.64,1.58-0.64,2.5c0,0.92,0.21,1.76,0.64,2.51c0.42,0.75,1.01,1.33,1.75,1.75
			c0.74,0.42,1.57,0.63,2.49,0.63S359.52,75.66,360.26,75.24z M358.97,62.02h1.57l-2.68,2.09h-1.16L358.97,62.02z"/>
		<path id="XMLID_335_" d="M381.82,65.08v11.81h-1.01l-7.44-9.58v9.58h-1.22V65.08h1.01l7.46,9.58v-9.58H381.82z"/>
	</g>
	<g id="XMLID_110_">
		<path id="XMLID_302_" d="M134,82.48h4.72c1.23,0,2.31,0.25,3.25,0.75c0.94,0.5,1.67,1.2,2.19,2.1c0.52,0.9,0.78,1.92,0.78,3.07
			c0,1.15-0.26,2.17-0.78,3.07c-0.52,0.9-1.25,1.59-2.19,2.09c-0.94,0.5-2.02,0.75-3.25,0.75H134V82.48z M138.65,93.23
			c1.02,0,1.91-0.2,2.67-0.62c0.76-0.41,1.35-0.98,1.77-1.71c0.42-0.73,0.63-1.56,0.63-2.51c0-0.95-0.21-1.78-0.63-2.51
			c-0.42-0.73-1.01-1.3-1.77-1.71c-0.76-0.41-1.65-0.62-2.67-0.62h-3.43v9.67H138.65z"/>
		<path id="XMLID_300_" d="M165.82,93.23v1.08h-8.2V82.48h7.95v1.08h-6.73v4.21h6v1.06h-6v4.39H165.82z"/>
		<path id="XMLID_297_" d="M186.24,93.63c-0.92-0.52-1.65-1.24-2.17-2.15c-0.52-0.92-0.79-1.95-0.79-3.09
			c0-1.14,0.26-2.16,0.79-3.08s1.25-1.64,2.18-2.15c0.93-0.52,1.97-0.78,3.11-0.78c0.86,0,1.66,0.15,2.39,0.44
			c0.73,0.29,1.35,0.72,1.86,1.28l-0.78,0.79c-0.91-0.94-2.05-1.4-3.43-1.4c-0.92,0-1.75,0.21-2.5,0.64
			c-0.75,0.43-1.34,1.01-1.76,1.76c-0.43,0.74-0.64,1.58-0.64,2.5c0,0.92,0.21,1.76,0.64,2.5c0.43,0.74,1.01,1.33,1.76,1.76
			c0.75,0.43,1.58,0.64,2.5,0.64c1.39,0,2.54-0.47,3.43-1.42l0.78,0.79c-0.51,0.56-1.13,0.99-1.86,1.29
			c-0.73,0.3-1.53,0.45-2.39,0.45C188.2,94.41,187.17,94.15,186.24,93.63z"/>
		<path id="XMLID_294_" d="M207.86,93.63c-0.93-0.52-1.66-1.24-2.19-2.15c-0.52-0.91-0.79-1.94-0.79-3.08
			c0-1.14,0.26-2.16,0.79-3.07c0.52-0.91,1.25-1.63,2.19-2.15c0.93-0.53,1.97-0.79,3.12-0.79c1.15,0,2.18,0.26,3.11,0.78
			c0.92,0.52,1.65,1.23,2.18,2.15c0.53,0.92,0.79,1.95,0.79,3.08c0,1.14-0.26,2.17-0.79,3.09c-0.53,0.92-1.26,1.64-2.18,2.15
			c-0.92,0.52-1.96,0.78-3.11,0.78C209.84,94.41,208.8,94.15,207.86,93.63z M213.47,92.66c0.74-0.42,1.32-1.01,1.74-1.76
			c0.42-0.75,0.63-1.59,0.63-2.51c0-0.92-0.21-1.76-0.63-2.51c-0.42-0.75-1-1.34-1.74-1.76c-0.74-0.42-1.57-0.63-2.48-0.63
			c-0.92,0-1.75,0.21-2.49,0.63c-0.75,0.42-1.33,1.01-1.76,1.76s-0.64,1.59-0.64,2.51c0,0.92,0.21,1.76,0.64,2.51
			c0.43,0.75,1.01,1.33,1.76,1.76c0.75,0.42,1.58,0.63,2.49,0.63C211.9,93.3,212.73,93.08,213.47,92.66z"/>
		<path id="XMLID_292_" d="M239.78,82.48v11.83h-1.01l-7.46-9.6v9.6h-1.23V82.48h1.01l7.47,9.6v-9.6H239.78z"/>
		<path id="XMLID_290_" d="M254.22,93.99c-0.79-0.28-1.4-0.65-1.83-1.12l0.48-0.96c0.42,0.43,0.98,0.78,1.67,1.04
			c0.7,0.27,1.41,0.4,2.15,0.4c1.04,0,1.82-0.19,2.34-0.58s0.78-0.89,0.78-1.51c0-0.47-0.14-0.85-0.42-1.13
			c-0.28-0.28-0.63-0.5-1.04-0.65c-0.41-0.15-0.98-0.32-1.71-0.5c-0.87-0.23-1.57-0.44-2.09-0.65c-0.52-0.21-0.96-0.53-1.33-0.96
			c-0.37-0.43-0.55-1.01-0.55-1.74c0-0.6,0.15-1.14,0.46-1.63c0.31-0.49,0.78-0.88,1.43-1.17c0.64-0.29,1.44-0.44,2.39-0.44
			c0.66,0,1.31,0.09,1.95,0.28c0.64,0.19,1.18,0.44,1.65,0.77l-0.41,1c-0.49-0.33-1.01-0.57-1.56-0.74
			c-0.55-0.16-1.09-0.24-1.62-0.24c-1.02,0-1.78,0.2-2.29,0.6c-0.51,0.4-0.77,0.92-0.77,1.55c0,0.47,0.14,0.85,0.42,1.14
			c0.28,0.29,0.64,0.51,1.06,0.66c0.43,0.15,1,0.32,1.72,0.5c0.85,0.21,1.54,0.43,2.06,0.63c0.52,0.21,0.97,0.52,1.33,0.95
			s0.55,0.99,0.55,1.71c0,0.6-0.16,1.14-0.47,1.63c-0.31,0.49-0.8,0.88-1.45,1.17c-0.65,0.29-1.45,0.43-2.4,0.43
			C255.84,94.41,255.01,94.27,254.22,93.99z"/>
		<path id="XMLID_287_" d="M274.92,93.63c-0.93-0.52-1.66-1.24-2.19-2.15c-0.52-0.91-0.79-1.94-0.79-3.08
			c0-1.14,0.26-2.16,0.79-3.07c0.52-0.91,1.25-1.63,2.19-2.15c0.93-0.53,1.97-0.79,3.12-0.79c1.15,0,2.18,0.26,3.11,0.78
			c0.92,0.52,1.65,1.23,2.18,2.15c0.53,0.92,0.8,1.95,0.8,3.08c0,1.14-0.27,2.17-0.8,3.09c-0.53,0.92-1.26,1.64-2.18,2.15
			c-0.92,0.52-1.96,0.78-3.11,0.78C276.89,94.41,275.85,94.15,274.92,93.63z M280.52,92.66c0.74-0.42,1.32-1.01,1.74-1.76
			c0.42-0.75,0.63-1.59,0.63-2.51c0-0.92-0.21-1.76-0.63-2.51c-0.42-0.75-1-1.34-1.74-1.76c-0.74-0.42-1.57-0.63-2.48-0.63
			c-0.92,0-1.75,0.21-2.49,0.63c-0.75,0.42-1.33,1.01-1.76,1.76c-0.42,0.75-0.64,1.59-0.64,2.51c0,0.92,0.21,1.76,0.64,2.51
			c0.43,0.75,1.01,1.33,1.76,1.76c0.75,0.42,1.58,0.63,2.49,0.63C278.96,93.3,279.78,93.08,280.52,92.66z"/>
		<path id="XMLID_188_" d="M303.74,94.31l-2.65-3.8c-0.3,0.04-0.61,0.05-0.93,0.05h-3.11v3.75h-1.22V82.48h4.34
			c1.48,0,2.64,0.36,3.48,1.08c0.84,0.72,1.26,1.71,1.26,2.97c0,0.92-0.23,1.7-0.69,2.34s-1.11,1.1-1.96,1.38l2.83,4.06H303.74z
			 M302.76,88.72c0.61-0.52,0.91-1.24,0.91-2.18c0-0.96-0.3-1.69-0.91-2.2c-0.61-0.51-1.49-0.77-2.63-0.77h-3.08v5.93h3.08
			C301.27,89.49,302.15,89.23,302.76,88.72z"/>
		<path id="XMLID_186_" d="M320.33,93.63c-0.92-0.52-1.64-1.24-2.17-2.15c-0.53-0.92-0.79-1.95-0.79-3.09
			c0-1.14,0.26-2.16,0.79-3.08c0.52-0.92,1.25-1.64,2.18-2.15c0.93-0.52,1.97-0.78,3.11-0.78c0.86,0,1.66,0.15,2.39,0.44
			c0.73,0.29,1.35,0.72,1.86,1.28l-0.78,0.79c-0.91-0.94-2.05-1.4-3.43-1.4c-0.92,0-1.75,0.21-2.5,0.64
			c-0.75,0.43-1.34,1.01-1.76,1.76c-0.42,0.74-0.64,1.58-0.64,2.5c0,0.92,0.21,1.76,0.64,2.5c0.42,0.74,1.01,1.33,1.76,1.76
			c0.75,0.43,1.58,0.64,2.5,0.64c1.39,0,2.53-0.47,3.43-1.42l0.78,0.79c-0.51,0.56-1.13,0.99-1.86,1.29
			c-0.73,0.3-1.53,0.45-2.39,0.45C322.29,94.41,321.25,94.15,320.33,93.63z"/>
		<path id="XMLID_184_" d="M338.83,82.48h1.23v11.83h-1.23V82.48z"/>
		<path id="XMLID_181_" d="M354.39,93.63c-0.93-0.52-1.66-1.24-2.19-2.15c-0.53-0.91-0.79-1.94-0.79-3.08
			c0-1.14,0.26-2.16,0.79-3.07c0.52-0.91,1.25-1.63,2.19-2.15c0.93-0.53,1.97-0.79,3.12-0.79s2.18,0.26,3.11,0.78
			c0.92,0.52,1.65,1.23,2.18,2.15c0.53,0.92,0.8,1.95,0.8,3.08c0,1.14-0.27,2.17-0.8,3.09c-0.53,0.92-1.26,1.64-2.18,2.15
			c-0.92,0.52-1.96,0.78-3.11,0.78S355.33,94.15,354.39,93.63z M360,92.66c0.74-0.42,1.32-1.01,1.74-1.76
			c0.42-0.75,0.63-1.59,0.63-2.51c0-0.92-0.21-1.76-0.63-2.51c-0.42-0.75-1-1.34-1.74-1.76c-0.74-0.42-1.57-0.63-2.48-0.63
			s-1.75,0.21-2.49,0.63c-0.75,0.42-1.33,1.01-1.76,1.76s-0.64,1.59-0.64,2.51c0,0.92,0.21,1.76,0.64,2.51
			c0.42,0.75,1.01,1.33,1.76,1.76c0.75,0.42,1.58,0.63,2.49,0.63S359.26,93.08,360,92.66z"/>
		<path id="XMLID_111_" d="M375.02,93.99c-0.79-0.28-1.4-0.65-1.83-1.12l0.48-0.96c0.42,0.43,0.98,0.78,1.67,1.04
			c0.7,0.27,1.41,0.4,2.15,0.4c1.04,0,1.82-0.19,2.34-0.58s0.78-0.89,0.78-1.51c0-0.47-0.14-0.85-0.42-1.13
			c-0.28-0.28-0.63-0.5-1.04-0.65c-0.41-0.15-0.98-0.32-1.71-0.5c-0.87-0.23-1.57-0.44-2.09-0.65c-0.52-0.21-0.96-0.53-1.33-0.96
			c-0.37-0.43-0.56-1.01-0.56-1.74c0-0.6,0.16-1.14,0.46-1.63c0.31-0.49,0.78-0.88,1.43-1.17c0.64-0.29,1.44-0.44,2.39-0.44
			c0.66,0,1.31,0.09,1.95,0.28c0.64,0.19,1.18,0.44,1.65,0.77l-0.41,1c-0.49-0.33-1.01-0.57-1.56-0.74
			c-0.55-0.16-1.09-0.24-1.62-0.24c-1.02,0-1.78,0.2-2.29,0.6c-0.51,0.4-0.77,0.92-0.77,1.55c0,0.47,0.14,0.85,0.42,1.14
			c0.28,0.29,0.64,0.51,1.06,0.66c0.42,0.15,1,0.32,1.72,0.5c0.85,0.21,1.54,0.43,2.06,0.63c0.52,0.21,0.97,0.52,1.33,0.95
			s0.55,0.99,0.55,1.71c0,0.6-0.16,1.14-0.47,1.63c-0.31,0.49-0.8,0.88-1.45,1.17c-0.65,0.29-1.45,0.43-2.4,0.43
			C376.64,94.41,375.81,94.27,375.02,93.99z"/>
	</g>
	<polygon id="XMLID_105_" class="st0" points="14.63,89.7 64.33,27.58 114.03,89.7 	"/>
	<polygon id="XMLID_104_" class="st0" points="36.83,32.59 36.82,51.09 51.58,32.59 	"/>
	<polygon id="XMLID_102_" class="st1" points="45.38,94.34 84.19,45.82 123.01,94.34 	"/>
	<g id="XMLID_305_">
		<path id="XMLID_306_" class="st2" d="M152.03,51.77h-11.78l-2.44,5.95h-3.26l10.03-23.79h3.14l10.06,23.79h-3.32L152.03,51.77z
			 M150.92,49.05l-4.78-11.66l-4.78,11.66H150.92z"/>
		<path id="XMLID_309_" class="st2" d="M180.14,33.93v23.79h-2.6l-13.29-17.74v17.74h-3.17V33.93h2.6l13.29,17.74V33.93H180.14z"/>
		<path id="XMLID_311_" class="st2" d="M200.91,51.77h-11.78l-2.44,5.95h-3.26l10.03-23.79h3.14l10.06,23.79h-3.32L200.91,51.77z
			 M199.8,49.05l-4.78-11.66l-4.78,11.66H199.8z"/>
		<path id="XMLID_314_" class="st2" d="M211.59,57.15c-1.55-0.55-2.77-1.27-3.66-2.16l1.17-2.65c0.84,0.82,1.92,1.48,3.25,1.99
			c1.32,0.51,2.68,0.77,4.07,0.77c1.84,0,3.21-0.33,4.11-1c0.91-0.67,1.36-1.56,1.36-2.67c0-0.82-0.25-1.48-0.75-1.99
			c-0.5-0.51-1.11-0.9-1.84-1.17s-1.76-0.58-3.09-0.92c-1.67-0.43-3.01-0.86-4.04-1.29c-1.03-0.43-1.9-1.09-2.63-1.99
			c-0.73-0.89-1.09-2.1-1.09-3.62c0-1.27,0.31-2.41,0.93-3.43c0.62-1.02,1.57-1.84,2.83-2.45c1.27-0.61,2.84-0.92,4.72-0.92
			c1.31,0,2.6,0.18,3.86,0.54c1.27,0.36,2.35,0.88,3.26,1.56l-1.05,2.72c-0.93-0.63-1.92-1.11-2.98-1.44
			c-1.06-0.33-2.09-0.49-3.1-0.49c-1.79,0-3.14,0.35-4.04,1.05c-0.9,0.7-1.35,1.61-1.35,2.72c0,0.81,0.25,1.48,0.76,1.99
			c0.51,0.51,1.13,0.91,1.89,1.19c0.75,0.28,1.77,0.58,3.05,0.9c1.67,0.43,3.01,0.86,4.02,1.29c1.01,0.43,1.88,1.09,2.61,1.97
			c0.73,0.88,1.09,2.07,1.09,3.57c0,1.25-0.32,2.38-0.95,3.42c-0.63,1.03-1.6,1.85-2.88,2.45c-1.29,0.6-2.87,0.9-4.75,0.9
			C214.75,57.98,213.14,57.71,211.59,57.15z"/>
		<path id="XMLID_316_" class="st2" d="M233.7,36.88h-7.6v-2.96h18.33v2.96h-7.6v20.83h-3.13V36.88z"/>
		<path id="XMLID_318_" class="st2" d="M251.52,56.41c-1.79-1.05-3.2-2.51-4.23-4.37c-1.02-1.86-1.54-3.93-1.54-6.22
			c0-2.29,0.51-4.36,1.54-6.22c1.02-1.86,2.43-3.31,4.23-4.37c1.79-1.05,3.81-1.58,6.05-1.58c2.22,0,4.22,0.53,6.01,1.58
			c1.79,1.05,3.2,2.51,4.21,4.35c1.01,1.85,1.52,3.93,1.52,6.24c0,2.31-0.51,4.39-1.52,6.24c-1.01,1.85-2.42,3.3-4.21,4.35
			c-1.79,1.05-3.8,1.58-6.01,1.58C255.33,57.98,253.32,57.46,251.52,56.41z M261.96,53.77c1.3-0.79,2.32-1.89,3.07-3.28
			c0.75-1.39,1.12-2.95,1.12-4.67c0-1.72-0.37-3.28-1.12-4.67c-0.75-1.39-1.77-2.49-3.07-3.28s-2.76-1.19-4.38-1.19
			c-1.63,0-3.1,0.4-4.42,1.19c-1.32,0.79-2.35,1.89-3.1,3.28c-0.75,1.39-1.12,2.95-1.12,4.67c0,1.72,0.38,3.28,1.12,4.67
			c0.75,1.39,1.78,2.49,3.1,3.28c1.32,0.79,2.79,1.19,4.42,1.19C259.2,54.96,260.66,54.56,261.96,53.77z M259.5,27.58h3.86
			l-5.32,4.42h-2.85L259.5,27.58z"/>
		<path id="XMLID_322_" class="st2" d="M289.58,36.14c1.65,1.47,2.47,3.5,2.47,6.08c0,2.58-0.82,4.61-2.47,6.08
			c-1.64,1.47-3.9,2.21-6.77,2.21h-5.48v7.2h-3.17V33.93h8.64C285.67,33.93,287.93,34.67,289.58,36.14z M287.3,46.18
			c1.06-0.92,1.58-2.24,1.58-3.96c0-1.72-0.53-3.04-1.58-3.96s-2.58-1.38-4.59-1.38h-5.38v10.67h5.38
			C284.71,47.55,286.24,47.09,287.3,46.18z"/>
		<path id="XMLID_325_" class="st2" d="M299.04,55.27c-1.65-1.81-2.47-4.42-2.47-7.81V33.93h3.17v13.39c0,5.1,2.08,7.65,6.24,7.65
			c2.03,0,3.58-0.63,4.65-1.89c1.08-1.26,1.62-3.18,1.62-5.76V33.93h3.07v13.52c0,3.42-0.82,6.03-2.47,7.83
			c-1.65,1.8-3.95,2.7-6.9,2.7C302.99,57.98,300.69,57.08,299.04,55.27z"/>
		<path id="XMLID_327_" class="st2" d="M321.8,33.93h3.17v20.83h12v2.96H321.8V33.93z"/>
		<path id="XMLID_329_" class="st2" d="M344.15,56.41c-1.79-1.05-3.2-2.51-4.23-4.37c-1.02-1.86-1.54-3.93-1.54-6.22
			c0-2.29,0.51-4.36,1.54-6.22c1.02-1.86,2.43-3.31,4.23-4.37c1.79-1.05,3.81-1.58,6.05-1.58c2.22,0,4.22,0.53,6.01,1.58
			c1.79,1.05,3.2,2.51,4.21,4.35c1.01,1.85,1.52,3.93,1.52,6.24c0,2.31-0.51,4.39-1.52,6.24c-1.01,1.85-2.42,3.3-4.21,4.35
			c-1.79,1.05-3.8,1.58-6.01,1.58C347.96,57.98,345.94,57.46,344.15,56.41z M354.58,53.77c1.3-0.79,2.32-1.89,3.07-3.28
			c0.75-1.39,1.12-2.95,1.12-4.67c0-1.72-0.37-3.28-1.12-4.67c-0.75-1.39-1.77-2.49-3.07-3.28s-2.76-1.19-4.38-1.19
			c-1.63,0-3.1,0.4-4.42,1.19c-1.32,0.79-2.35,1.89-3.1,3.28c-0.75,1.39-1.12,2.95-1.12,4.67c0,1.72,0.38,3.28,1.12,4.67
			s1.78,2.49,3.1,3.28c1.32,0.79,2.79,1.19,4.42,1.19C351.82,54.96,353.28,54.56,354.58,53.77z"/>
		<path id="XMLID_332_" class="st2" d="M368.42,57.15c-1.55-0.55-2.77-1.27-3.66-2.16l1.17-2.65c0.84,0.82,1.92,1.48,3.25,1.99
			c1.32,0.51,2.68,0.77,4.07,0.77c1.84,0,3.21-0.33,4.11-1c0.91-0.67,1.36-1.56,1.36-2.67c0-0.82-0.25-1.48-0.75-1.99
			c-0.5-0.51-1.11-0.9-1.84-1.17c-0.73-0.27-1.76-0.58-3.09-0.92c-1.67-0.43-3.01-0.86-4.04-1.29c-1.03-0.43-1.9-1.09-2.63-1.99
			c-0.73-0.89-1.09-2.1-1.09-3.62c0-1.27,0.31-2.41,0.93-3.43c0.62-1.02,1.57-1.84,2.83-2.45c1.27-0.61,2.84-0.92,4.72-0.92
			c1.31,0,2.6,0.18,3.86,0.54c1.27,0.36,2.35,0.88,3.26,1.56l-1.05,2.72c-0.93-0.63-1.92-1.11-2.98-1.44
			c-1.06-0.33-2.09-0.49-3.1-0.49c-1.79,0-3.14,0.35-4.04,1.05c-0.9,0.7-1.35,1.61-1.35,2.72c0,0.81,0.25,1.48,0.76,1.99
			c0.51,0.51,1.13,0.91,1.89,1.19c0.75,0.28,1.77,0.58,3.05,0.9c1.67,0.43,3.01,0.86,4.02,1.29c1.01,0.43,1.88,1.09,2.61,1.97
			c0.73,0.88,1.09,2.07,1.09,3.57c0,1.25-0.32,2.38-0.95,3.42c-0.63,1.03-1.6,1.85-2.88,2.45c-1.29,0.6-2.87,0.9-4.75,0.9
			C371.58,57.98,369.97,57.71,368.42,57.15z"/>
	</g>
</g>
</svg>
