<?xml version="1.0" encoding="utf-8"?>
<!-- Generator: Adobe Illustrator 24.2.0, SVG Export Plug-In . SVG Version: 6.00 Build 0)  -->
<svg version="1.1" id="Layer_1" xmlns="http://www.w3.org/2000/svg" xmlns:xlink="http://www.w3.org/1999/xlink" x="0px" y="0px"
	 viewBox="0 0 3169.23 662.81" enable-background="new 0 0 3169.23 662.81" xml:space="preserve">
<g>
	<path fill="#FFFFFF" stroke="#FFFFFF" stroke-width="12" stroke-miterlimit="10" d="M1249.46,249.75h-89.93l-19.71,43.63h-12.19
		l71.32-155.04h11.29l71.32,155.04h-12.19L1249.46,249.75z M1245.26,240.22l-40.76-89.48l-40.54,89.48H1245.26z"/>
	<path fill="#FFFFFF" stroke="#FFFFFF" stroke-width="12" stroke-miterlimit="10" d="M1439.51,138.34v155.04h-9.3l-105.64-134.66
		v134.66h-11.31V138.34h9.52L1428.22,273V138.34H1439.51z"/>
	<path fill="#FFFFFF" stroke="#FFFFFF" stroke-width="12" stroke-miterlimit="10" d="M1597.65,249.75h-89.93l-19.71,43.63h-12.19
		l71.32-155.04h11.29l71.32,155.04h-12.19L1597.65,249.75z M1593.43,240.22l-40.74-89.48l-40.54,89.48H1593.43z"/>
	<path fill="#FFFFFF" stroke="#FFFFFF" stroke-width="12" stroke-miterlimit="10" d="M1656.56,273.45l5.1-8.42
		c10.63,11.08,30.34,19.48,51.17,19.48c31.01,0,44.74-13.52,44.74-30.34c0-46.52-96.79-18.6-96.79-75.75
		c0-21.92,16.84-41.19,54.92-41.19c17.06,0,34.78,5.32,46.73,13.95l-4.2,9.08c-12.84-8.87-28.57-13.07-42.53-13.07
		c-30.11,0-43.63,13.95-43.63,31.01c0,46.52,96.79,19.05,96.79,75.3c0,21.92-17.49,40.97-55.82,40.97
		C1690.01,294.49,1667.87,285.84,1656.56,273.45z"/>
	<path fill="#FFFFFF" stroke="#FFFFFF" stroke-width="12" stroke-miterlimit="10" d="M1865.87,148.54h-55.82v-10.18h122.93v10.18
		h-55.82v144.84h-11.29L1865.87,148.54L1865.87,148.54z"/>
	<path fill="#FFFFFF" stroke="#FFFFFF" stroke-width="12" stroke-miterlimit="10" d="M1963.54,215.85
		c0-44.96,34.33-78.62,80.63-78.62c46.07,0,80.63,33.45,80.63,78.62c0,45.19-34.56,78.64-80.63,78.64
		C1997.87,294.49,1963.54,260.81,1963.54,215.85z M2113.28,215.85c0-39.21-29.68-68.21-69.11-68.21
		c-39.64,0-69.32,29.01-69.32,68.21s29.68,68.21,69.32,68.21C2083.6,284.08,2113.28,255.07,2113.28,215.85z M2062.33,99.58h15.96
		l-34.78,26.14h-11.96L2062.33,99.58z"/>
	<path fill="#FFFFFF" stroke="#FFFFFF" stroke-width="12" stroke-miterlimit="10" d="M2296.22,190.61
		c0,32.57-23.48,52.05-62.46,52.05h-44.31v50.72h-11.31V138.34h55.59C2272.75,138.34,2296.22,157.84,2296.22,190.61z
		 M2284.71,190.61c0-26.79-17.72-42.08-50.94-42.08h-44.31v83.94h44.31C2266.97,232.46,2284.71,217.2,2284.71,190.61z"/>
	<path fill="#FFFFFF" stroke="#FFFFFF" stroke-width="12" stroke-miterlimit="10" d="M2348.05,227.61v-89.27h11.31v88.82
		c0,38.76,18.6,56.92,50.94,56.92s50.72-18.17,50.72-56.92v-88.82h11.31v89.27c0,44.29-23.7,66.88-62.23,66.88
		C2371.54,294.49,2348.05,271.89,2348.05,227.61z"/>
	<path fill="#FFFFFF" stroke="#FFFFFF" stroke-width="12" stroke-miterlimit="10" d="M2532.34,138.34h11.29v144.84h89.27v10.18
		h-100.56L2532.34,138.34L2532.34,138.34z"/>
	<path fill="#FFFFFF" stroke="#FFFFFF" stroke-width="12" stroke-miterlimit="10" d="M2654.59,215.85
		c0-44.96,34.33-78.62,80.63-78.62c46.07,0,80.63,33.45,80.63,78.62c0,45.19-34.56,78.64-80.63,78.64
		C2688.92,294.49,2654.59,260.81,2654.59,215.85z M2804.31,215.85c0-39.21-29.68-68.21-69.09-68.21
		c-39.64,0-69.32,29.01-69.32,68.21s29.68,68.21,69.32,68.21C2774.65,284.08,2804.31,255.07,2804.31,215.85z"/>
	<path fill="#FFFFFF" stroke="#FFFFFF" stroke-width="12" stroke-miterlimit="10" d="M2852.61,273.45l5.1-8.42
		c10.63,11.08,30.34,19.48,51.17,19.48c31.01,0,44.74-13.52,44.74-30.34c0-46.52-96.79-18.6-96.79-75.75
		c0-21.92,16.84-41.19,54.94-41.19c17.04,0,34.76,5.32,46.73,13.95l-4.2,9.08c-12.84-8.87-28.57-13.07-42.53-13.07
		c-30.13,0-43.63,13.95-43.63,31.01c0,46.52,96.79,19.05,96.79,75.3c0,21.92-17.49,40.97-55.82,40.97
		C2886.04,294.49,2863.9,285.84,2852.61,273.45z"/>
</g>
<g>
	<path fill="#FFFFFF" stroke="#FFFFFF" stroke-width="12" stroke-miterlimit="10" d="M1195.41,450.38h-51.81l-11.62,25.34h-4.58
		l40.05-86.54h4.08l40.05,86.54h-4.58L1195.41,450.38z M1193.8,446.78l-24.24-52.79l-24.36,52.79H1193.8z"/>
	<path fill="#FFFFFF" stroke="#FFFFFF" stroke-width="12" stroke-miterlimit="10" d="M1289.97,391.76h33.38
		c27.45,0,45.86,18.17,45.86,43.27s-18.43,43.27-45.86,43.27h-33.38V391.76z M1323.1,474.46c25.58,0,41.92-16.56,41.92-39.45
		c0-22.89-16.32-39.45-41.92-39.45h-28.94v78.88h28.94V474.46z"/>
	<path fill="#FFFFFF" stroke="#FFFFFF" stroke-width="12" stroke-miterlimit="10" d="M1534.99,478.3l-0.12-78.01l-37.96,66.02h-2.23
		l-38.08-65.78v77.77h-4.08v-86.54h3.46l39.81,69.23l39.69-69.23h3.46l0.12,86.54H1534.99z"/>
	<path fill="#FFFFFF" stroke="#FFFFFF" stroke-width="12" stroke-miterlimit="10" d="M1625.97,391.76h4.2v86.54h-4.2V391.76z"/>
	<path fill="#FFFFFF" stroke="#FFFFFF" stroke-width="12" stroke-miterlimit="10" d="M1795.1,391.76v86.54h-3.46l-61.45-78.88v78.88
		h-4.2v-86.54h3.46l61.45,78.88v-78.88H1795.1z"/>
	<path fill="#FFFFFF" stroke="#FFFFFF" stroke-width="12" stroke-miterlimit="10" d="M1885.7,391.76h4.2v86.54h-4.2V391.76z"/>
	<path fill="#FFFFFF" stroke="#FFFFFF" stroke-width="12" stroke-miterlimit="10" d="M1967.78,466.8l2.23-2.97
		c5.57,6.31,16.56,11.25,28.56,11.25c18.17,0,26.21-8.28,26.21-18.31c0-27.69-54.52-11.25-54.52-43.27
		c0-11.62,8.9-22.25,29.54-22.25c9.53,0,19.17,3.09,25.58,7.92l-1.85,3.34c-6.91-5.06-15.82-7.54-23.61-7.54
		c-17.56,0-25.58,8.4-25.58,18.55c0,27.81,54.52,11.74,54.52,43.15c0,11.74-9.27,22.13-30.17,22.13
		C1985.96,478.8,1973.84,473.85,1967.78,466.8z"/>
	<path fill="#FFFFFF" stroke="#FFFFFF" stroke-width="12" stroke-miterlimit="10" d="M2127.38,395.58h-31.77v-3.84h67.63v3.84
		h-31.77v82.72h-4.08V395.58z"/>
	<path fill="#FFFFFF" stroke="#FFFFFF" stroke-width="12" stroke-miterlimit="10" d="M2296.38,478.3l-21.38-29.8
		c-2.85,0.48-6.07,0.74-9.4,0.74h-25.84v29.06h-4.2v-86.54h30.04c21.52,0,34.37,10.63,34.37,28.68c0,13.97-7.54,23.49-20.78,27.07
		l22.13,30.79H2296.38z M2265.83,445.4c19.41,0,30.04-9.02,30.04-24.98c0-15.82-10.63-24.86-30.04-24.86h-26.09v49.82h26.09V445.4z"
		/>
	<path fill="#FFFFFF" stroke="#FFFFFF" stroke-width="12" stroke-miterlimit="10" d="M2428.15,452.95h-51.81l-11.62,25.34h-4.58
		l40.05-86.54h4.08l40.05,86.54h-4.58L2428.15,452.95z M2426.55,449.38l-24.24-52.79l-24.36,52.79H2426.55z"/>
	<path fill="#FFFFFF" stroke="#FFFFFF" stroke-width="12" stroke-miterlimit="10" d="M2508.26,435.03
		c0-25.1,19.15-43.77,44.63-43.77c11.74,0,22.51,3.84,30.04,11.5l-2.59,2.71c-7.68-7.42-17.06-10.39-27.33-10.39
		c-23.11,0-40.55,17.3-40.55,39.93c0,22.63,17.43,39.93,40.55,39.93c10.27,0,19.65-3.09,27.33-10.51l2.59,2.71
		c-7.54,7.78-18.31,11.62-30.04,11.62C2527.41,478.8,2508.26,460.13,2508.26,435.03z"/>
	<path fill="#FFFFFF" stroke="#FFFFFF" stroke-width="12" stroke-miterlimit="10" d="M2660.8,391.76h4.2v86.54h-4.2V391.76z"/>
	<path fill="#FFFFFF" stroke="#FFFFFF" stroke-width="12" stroke-miterlimit="10" d="M2740.16,435.03
		c0-25.1,19.15-43.77,44.63-43.77c25.58,0,44.76,18.67,44.76,43.77s-19.17,43.77-44.76,43.77
		C2759.33,478.8,2740.16,460.13,2740.16,435.03z M2825.35,435.03c0-22.87-17.43-39.93-40.55-39.93c-22.99,0-40.43,17.06-40.43,39.93
		c0,22.87,17.43,39.93,40.43,39.93C2807.93,474.96,2825.35,457.9,2825.35,435.03z M2795.81,370.72h6.67l-18.91,13.97h-4.94
		L2795.81,370.72z"/>
	<path fill="#FFFFFF" stroke="#FFFFFF" stroke-width="12" stroke-miterlimit="10" d="M2963.07,391.76v86.54h-3.46l-61.45-78.88
		v78.88h-4.2v-86.54h3.46l61.45,78.88v-78.88H2963.07z"/>
</g>
<g>
	<path fill="#FFFFFF" stroke="#FFFFFF" stroke-width="12" stroke-miterlimit="10" d="M1125.95,539.09h33.38
		c27.45,0,45.86,18.17,45.86,43.27s-18.43,43.27-45.86,43.27h-33.38V539.09z M1159.09,621.81c25.58,0,41.92-16.56,41.92-39.45
		s-16.32-39.45-41.92-39.45h-28.94v78.88h28.94V621.81z"/>
	<path fill="#FFFFFF" stroke="#FFFFFF" stroke-width="12" stroke-miterlimit="10" d="M1360.72,621.81v3.84h-58.48v-86.54h56.75v3.84
		h-52.55v36.84h46.99v3.84h-46.99v38.2h54.28V621.81z"/>
	<path fill="#FFFFFF" stroke="#FFFFFF" stroke-width="12" stroke-miterlimit="10" d="M1491.37,582.36
		c0-25.1,19.17-43.77,44.63-43.77c11.74,0,22.51,3.84,30.04,11.5l-2.59,2.71c-7.66-7.42-17.06-10.39-27.33-10.39
		c-23.11,0-40.55,17.3-40.55,39.93c0,22.63,17.44,39.93,40.55,39.93c10.27,0,19.65-3.09,27.33-10.51l2.59,2.71
		c-7.54,7.78-18.31,11.62-30.04,11.62C1510.54,626.13,1491.37,607.46,1491.37,582.36z"/>
	<path fill="#FFFFFF" stroke="#FFFFFF" stroke-width="12" stroke-miterlimit="10" d="M1651.83,582.36
		c0-25.1,19.17-43.77,44.63-43.77c25.58,0,44.76,18.67,44.76,43.77s-19.17,43.77-44.76,43.77
		C1671,626.13,1651.83,607.46,1651.83,582.36z M1737.02,582.36c0-22.87-17.42-39.93-40.55-39.93c-22.99,0-40.43,17.06-40.43,39.93
		s17.44,39.93,40.43,39.93C1719.59,622.29,1737.02,605.25,1737.02,582.36z"/>
	<path fill="#FFFFFF" stroke="#FFFFFF" stroke-width="12" stroke-miterlimit="10" d="M1909.85,539.09v86.54h-3.46l-61.45-78.88
		v78.88h-4.2v-86.54h3.46l61.45,78.88v-78.88H1909.85z"/>
	<path fill="#FFFFFF" stroke="#FFFFFF" stroke-width="12" stroke-miterlimit="10" d="M2006.64,614.13l2.23-2.97
		c5.57,6.31,16.56,11.25,28.56,11.25c18.17,0,26.21-8.28,26.21-18.31c0-27.69-54.52-11.25-54.52-43.27
		c0-11.62,8.9-22.25,29.54-22.25c9.52,0,19.17,3.09,25.58,7.92l-1.85,3.34c-6.91-5.06-15.82-7.54-23.61-7.54
		c-17.56,0-25.58,8.4-25.58,18.55c0,27.81,54.52,11.74,54.52,43.15c0,11.74-9.27,22.13-30.17,22.13
		C2024.81,626.13,2012.69,621.19,2006.64,614.13z"/>
	<path fill="#FFFFFF" stroke="#FFFFFF" stroke-width="12" stroke-miterlimit="10" d="M2150.77,582.36
		c0-25.1,19.17-43.77,44.63-43.77c25.6,0,44.76,18.67,44.76,43.77s-19.17,43.77-44.76,43.77
		C2169.94,626.13,2150.77,607.46,2150.77,582.36z M2235.96,582.36c0-22.87-17.44-39.93-40.55-39.93
		c-22.99,0-40.43,17.06-40.43,39.93s17.43,39.93,40.43,39.93C2218.52,622.29,2235.96,605.25,2235.96,582.36z"/>
	<path fill="#FFFFFF" stroke="#FFFFFF" stroke-width="12" stroke-miterlimit="10" d="M2390.61,625.65l-21.38-29.8
		c-2.85,0.48-6.07,0.74-9.4,0.74h-25.84v29.06h-4.2v-86.54h30.04c21.52,0,34.37,10.63,34.37,28.68c0,13.97-7.54,23.49-20.78,27.07
		l22.13,30.79H2390.61z M2360.06,592.75c19.41,0,30.04-9.02,30.04-24.98c0-15.82-10.63-24.86-30.04-24.86h-26.09v49.82h26.09V592.75
		z"/>
	<path fill="#FFFFFF" stroke="#FFFFFF" stroke-width="12" stroke-miterlimit="10" d="M2488.88,582.36
		c0-25.1,19.15-43.77,44.63-43.77c11.74,0,22.51,3.84,30.04,11.5l-2.59,2.71c-7.68-7.42-17.06-10.39-27.33-10.39
		c-23.11,0-40.55,17.3-40.55,39.93c0,22.63,17.43,39.93,40.55,39.93c10.27,0,19.65-3.09,27.33-10.51l2.59,2.71
		c-7.54,7.78-18.31,11.62-30.04,11.62C2508.04,626.13,2488.88,607.46,2488.88,582.36z"/>
	<path fill="#FFFFFF" stroke="#FFFFFF" stroke-width="12" stroke-miterlimit="10" d="M2649.34,539.09h4.2v86.54h-4.2V539.09z"/>
	<path fill="#FFFFFF" stroke="#FFFFFF" stroke-width="12" stroke-miterlimit="10" d="M2740.7,582.36c0-25.1,19.15-43.77,44.63-43.77
		c25.58,0,44.76,18.67,44.76,43.77s-19.17,43.77-44.76,43.77C2759.85,626.13,2740.7,607.46,2740.7,582.36z M2825.89,582.36
		c0-22.87-17.43-39.93-40.55-39.93c-22.99,0-40.43,17.06-40.43,39.93s17.43,39.93,40.43,39.93
		C2808.44,622.29,2825.89,605.25,2825.89,582.36z"/>
	<path fill="#FFFFFF" stroke="#FFFFFF" stroke-width="12" stroke-miterlimit="10" d="M2903.26,614.13l2.23-2.97
		c5.57,6.31,16.56,11.25,28.56,11.25c18.19,0,26.21-8.28,26.21-18.31c0-27.69-54.52-11.25-54.52-43.27
		c0-11.62,8.9-22.25,29.54-22.25c9.52,0,19.17,3.09,25.6,7.92l-1.85,3.34c-6.93-5.06-15.82-7.54-23.61-7.54
		c-17.55,0-25.58,8.4-25.58,18.55c0,27.81,54.52,11.74,54.52,43.15c0,11.74-9.27,22.13-30.17,22.13
		C2921.45,626.13,2909.33,621.19,2903.26,614.13z"/>
</g>
<polygon id="XMLID_210_" fill="#4D6CA1" points="26.12,558.98 446.71,33.25 867.3,558.98 "/>
<polygon id="XMLID_209_" fill="#4D6CA1" points="213.94,75.71 213.94,232.2 338.76,75.71 "/>
<polygon id="XMLID_207_" fill="#F8A367" points="397.62,621.85 745.88,186.51 1094.15,621.85 "/>
</svg>
