<?xml version="1.0" encoding="utf-8"?>
<!-- Generator: Adobe Illustrator 24.2.0, SVG Export Plug-In . SVG Version: 6.00 Build 0)  -->
<svg version="1.1" id="Layer_1" xmlns="http://www.w3.org/2000/svg" xmlns:xlink="http://www.w3.org/1999/xlink" x="0px" y="0px"
	 viewBox="0 0 1316.4 290.8" style="enable-background:new 0 0 1316.4 290.8;" xml:space="preserve">
<style type="text/css">
	.st0{fill:#FFFFFF;stroke:#FFFFFF;stroke-width:3.4322;stroke-miterlimit:10;}
	.st1{fill:#4D6BA1;}
	.st2{fill:#F9A368;}
	.st3{fill:#FFFFFF;stroke:#FFFFFF;stroke-width:1.8163;stroke-miterlimit:10;}
</style>
<g>
	<g id="XMLID_334_">
		<path id="XMLID_366_" class="st0" d="M457,182h-22.1l-4.8,10.8h-4.4l18.2-40.5h4.1l18.2,40.5h-4.4L457,182z M455.5,178.6
			l-9.5-21.8l-9.5,21.8H455.5z"/>
		<path id="XMLID_363_" class="st0" d="M501,153.5h16.2c4.2,0,7.9,0.9,11.1,2.6c3.2,1.7,5.7,4.1,7.5,7.2c1.8,3.1,2.7,6.6,2.7,10.5
			c0,3.9-0.9,7.4-2.7,10.5c-1.8,3.1-4.3,5.5-7.5,7.2c-3.2,1.7-6.9,2.6-11.1,2.6H501V153.5z M517,190.4c3.5,0,6.5-0.7,9.1-2.1
			c2.6-1.4,4.6-3.4,6.1-5.9c1.4-2.5,2.2-5.4,2.2-8.6c0-3.2-0.7-6.1-2.2-8.6c-1.4-2.5-3.5-4.4-6.1-5.9s-5.7-2.1-9.1-2.1h-11.8v33.1
			L517,190.4L517,190.4z"/>
		<path id="XMLID_361_" class="st0" d="M617,153.5v40.5h-4v-32.4l-15.6,27.3h-2l-15.6-27.1v32.3h-4v-40.5h3.5l17.3,30.1l17.1-30.1
			H617z"/>
		<path id="XMLID_359_" class="st0" d="M655.3,153.5h4.2v40.5h-4.2V153.5z"/>
		<path id="XMLID_357_" class="st0" d="M735.1,153.5v40.5h-3.5l-25.5-32.9v32.9h-4.2v-40.5h3.5l25.6,32.9v-32.9H735.1z"/>
		<path id="XMLID_355_" class="st0" d="M775.1,153.5h4.2v40.5h-4.2V153.5z"/>
		<path id="XMLID_353_" class="st0" d="M820.1,193c-2.7-1-4.8-2.2-6.3-3.8l1.7-3.3c1.4,1.5,3.3,2.7,5.7,3.6c2.4,0.9,4.8,1.4,7.4,1.4
			c3.6,0,6.2-0.7,8-2s2.7-3.1,2.7-5.2c0-1.6-0.5-2.9-1.5-3.9c-1-1-2.2-1.7-3.5-2.2c-1.4-0.5-3.3-1.1-5.8-1.7c-3-0.8-5.4-1.5-7.2-2.2
			c-1.8-0.7-3.3-1.8-4.6-3.3s-1.9-3.4-1.9-6c0-2,0.5-3.9,1.6-5.6s2.7-3,4.9-4s4.9-1.5,8.2-1.5c2.3,0,4.5,0.3,6.7,1s4.1,1.5,5.7,2.6
			l-1.4,3.4c-1.7-1.1-3.4-2-5.3-2.5c-1.9-0.6-3.8-0.8-5.6-0.8c-3.5,0-6.1,0.7-7.9,2.1c-1.8,1.4-2.6,3.1-2.6,5.3
			c0,1.6,0.5,2.9,1.5,3.9c1,1,2.2,1.7,3.6,2.3c1.5,0.5,3.4,1.1,5.9,1.7c2.9,0.7,5.3,1.5,7.1,2.2c1.8,0.7,3.3,1.8,4.6,3.2
			c1.3,1.4,1.9,3.4,1.9,5.9c0,2-0.5,3.9-1.6,5.6s-2.7,3-5,4c-2.2,1-5,1.5-8.2,1.5C825.6,194.4,822.8,193.9,820.1,193z"/>
		<path id="XMLID_351_" class="st0" d="M887.6,157.2h-14v-3.7h32.1v3.7h-14v36.8h-4.2L887.6,157.2L887.6,157.2z"/>
		<path id="XMLID_348_" class="st0" d="M965.3,194.1l-9.1-13c-1,0.1-2.1,0.2-3.2,0.2h-10.7v12.9h-4.2v-40.5H953
			c5.1,0,9,1.2,11.9,3.7c2.9,2.5,4.3,5.9,4.3,10.2c0,3.2-0.8,5.8-2.4,8c-1.6,2.2-3.8,3.8-6.7,4.7l9.7,13.9L965.3,194.1L965.3,194.1z
			 M961.9,174.9c2.1-1.8,3.1-4.3,3.1-7.5c0-3.3-1-5.8-3.1-7.6c-2.1-1.8-5.1-2.6-9-2.6h-10.6v20.3h10.6
			C956.8,177.6,959.8,176.7,961.9,174.9z"/>
		<path id="XMLID_345_" class="st0" d="M1027.4,183.2h-22.1l-4.8,10.8h-4.4l18.2-40.5h4.2l18.2,40.5h-4.4L1027.4,183.2z
			 M1025.9,179.8l-9.5-21.8l-9.5,21.8H1025.9z"/>
		<path id="XMLID_343_" class="st0" d="M1075.5,191.8c-3.2-1.8-5.6-4.2-7.4-7.4c-1.8-3.1-2.7-6.7-2.7-10.6c0-3.9,0.9-7.4,2.7-10.6
			c1.8-3.1,4.3-5.6,7.5-7.4c3.2-1.8,6.7-2.7,10.7-2.7c2.9,0,5.7,0.5,8.2,1.5c2.5,1,4.6,2.5,6.4,4.4l-2.7,2.7
			c-3.1-3.2-7-4.8-11.8-4.8c-3.1,0-6,0.7-8.6,2.2c-2.6,1.5-4.6,3.5-6.1,6c-1.5,2.5-2.2,5.4-2.2,8.6c0,3.2,0.7,6,2.2,8.6
			s3.5,4.6,6.1,6c2.6,1.5,5.4,2.2,8.6,2.2c4.8,0,8.7-1.6,11.8-4.9l2.7,2.7c-1.7,1.9-3.9,3.4-6.4,4.4s-5.3,1.5-8.2,1.5
			C1082.2,194.4,1078.7,193.5,1075.5,191.8z"/>
		<path id="XMLID_341_" class="st0" d="M1135.2,153.5h4.2v40.5h-4.2V153.5z"/>
		<path id="XMLID_337_" class="st0" d="M1183.1,191.7c-3.2-1.8-5.7-4.3-7.5-7.4c-1.8-3.1-2.7-6.6-2.7-10.5s0.9-7.4,2.7-10.5
			c1.8-3.1,4.3-5.6,7.5-7.4c3.2-1.8,6.8-2.7,10.7-2.7s7.5,0.9,10.6,2.7s5.7,4.2,7.5,7.4c1.8,3.1,2.7,6.7,2.7,10.6
			c0,3.9-0.9,7.4-2.7,10.6s-4.3,5.6-7.5,7.4s-6.7,2.7-10.6,2.7C1189.8,194.4,1186.3,193.5,1183.1,191.7z M1202.3,188.4
			c2.5-1.4,4.5-3.4,6-6c1.4-2.6,2.2-5.4,2.2-8.6c0-3.2-0.7-6-2.2-8.6c-1.4-2.6-3.4-4.6-6-6c-2.5-1.4-5.4-2.2-8.5-2.2s-6,0.7-8.5,2.2
			s-4.6,3.4-6,6s-2.2,5.4-2.2,8.6c0,3.2,0.7,6,2.2,8.6c1.5,2.6,3.5,4.6,6,6c2.6,1.4,5.4,2.2,8.5,2.2S1199.8,189.9,1202.3,188.4z
			 M1197.9,143.1h5.4l-9.2,7.2h-4L1197.9,143.1z"/>
		<path id="XMLID_335_" class="st0" d="M1276.3,153.5v40.5h-3.5l-25.6-32.9v32.9h-4.2v-40.5h3.5l25.6,32.9v-32.9H1276.3z"/>
	</g>
	<g id="XMLID_110_">
		<path id="XMLID_302_" class="st0" d="M425.7,213.3h16.2c4.2,0,7.9,0.9,11.1,2.6c3.2,1.7,5.7,4.1,7.5,7.2c1.8,3.1,2.7,6.6,2.7,10.5
			s-0.9,7.5-2.7,10.5c-1.8,3.1-4.3,5.5-7.5,7.2c-3.2,1.7-6.9,2.6-11.1,2.6h-16.2V213.3z M441.7,250.2c3.5,0,6.5-0.7,9.1-2.1
			c2.6-1.4,4.6-3.4,6.1-5.9c1.4-2.5,2.2-5.4,2.2-8.6s-0.7-6.1-2.2-8.6s-3.5-4.4-6.1-5.9c-2.6-1.4-5.7-2.1-9.1-2.1h-11.8v33.2H441.7z
			"/>
		<path id="XMLID_300_" class="st0" d="M535,250.2v3.7h-28.2v-40.6h27.3v3.7H511v14.4h20.6v3.6H511v15.1L535,250.2L535,250.2z"/>
		<path id="XMLID_297_" class="st0" d="M605,251.6c-3.2-1.8-5.7-4.2-7.5-7.4s-2.7-6.7-2.7-10.6c0-3.9,0.9-7.4,2.7-10.6
			c1.8-3.1,4.3-5.6,7.5-7.4c3.2-1.8,6.8-2.7,10.7-2.7c3,0,5.7,0.5,8.2,1.5s4.6,2.5,6.4,4.4l-2.7,2.7c-3.1-3.2-7-4.8-11.8-4.8
			c-3.2,0-6,0.7-8.6,2.2c-2.6,1.5-4.6,3.5-6.1,6s-2.2,5.4-2.2,8.6s0.7,6,2.2,8.6c1.5,2.6,3.5,4.6,6.1,6c2.6,1.5,5.4,2.2,8.6,2.2
			c4.8,0,8.7-1.6,11.8-4.9l2.7,2.7c-1.7,1.9-3.9,3.4-6.4,4.4c-2.5,1-5.3,1.5-8.2,1.5C611.8,254.2,608.2,253.3,605,251.6z"/>
		<path id="XMLID_294_" class="st0" d="M679.2,251.5c-3.2-1.8-5.7-4.3-7.5-7.4c-1.8-3.1-2.7-6.6-2.7-10.6c0-3.9,0.9-7.4,2.7-10.6
			s4.3-5.6,7.5-7.4c3.2-1.8,6.8-2.7,10.7-2.7c3.9,0,7.5,0.9,10.7,2.7c3.2,1.8,5.7,4.2,7.5,7.4s2.7,6.7,2.7,10.6
			c0,3.9-0.9,7.4-2.7,10.6s-4.3,5.6-7.5,7.4c-3.2,1.8-6.7,2.7-10.7,2.7C686,254.2,682.5,253.3,679.2,251.5z M698.5,248.2
			c2.5-1.4,4.5-3.5,6-6c1.4-2.6,2.2-5.4,2.2-8.6s-0.7-6-2.2-8.6s-3.4-4.6-6-6s-5.4-2.2-8.5-2.2s-6,0.7-8.6,2.2s-4.6,3.5-6,6
			c-1.5,2.6-2.2,5.4-2.2,8.6s0.7,6.1,2.2,8.6c1.5,2.6,3.5,4.6,6,6c2.6,1.4,5.4,2.2,8.6,2.2S696,249.7,698.5,248.2z"/>
		<path id="XMLID_292_" class="st0" d="M788.8,213.3v40.6h-3.5l-25.6-32.9v32.9h-4.2v-40.6h3.5l25.7,32.9v-32.9L788.8,213.3
			L788.8,213.3z"/>
		<path id="XMLID_290_" class="st0" d="M838.4,252.8c-2.7-1-4.8-2.2-6.3-3.8l1.7-3.3c1.4,1.5,3.4,2.7,5.7,3.6
			c2.4,0.9,4.8,1.4,7.4,1.4c3.6,0,6.2-0.7,8-2c1.8-1.3,2.7-3.1,2.7-5.2c0-1.6-0.5-2.9-1.5-3.9c-1-1-2.2-1.7-3.5-2.2
			c-1.4-0.5-3.4-1.1-5.9-1.7c-3-0.8-5.4-1.5-7.2-2.2c-1.8-0.7-3.3-1.8-4.6-3.3s-1.9-3.5-1.9-6c0-2.1,0.5-3.9,1.6-5.6
			c1.1-1.7,2.7-3,4.9-4c2.2-1,4.9-1.5,8.2-1.5c2.3,0,4.5,0.3,6.7,1s4.1,1.5,5.7,2.6l-1.4,3.4c-1.7-1.1-3.5-2-5.3-2.5
			c-1.9-0.6-3.8-0.8-5.6-0.8c-3.5,0-6.1,0.7-7.9,2.1c-1.8,1.4-2.6,3.1-2.6,5.3c0,1.6,0.5,2.9,1.5,3.9c1,1,2.2,1.7,3.6,2.3
			c1.5,0.5,3.4,1.1,5.9,1.7c2.9,0.7,5.3,1.5,7.1,2.2c1.8,0.7,3.3,1.8,4.6,3.3s1.9,3.4,1.9,5.9c0,2.1-0.5,3.9-1.6,5.6
			c-1.1,1.7-2.7,3-5,4c-2.2,1-5,1.5-8.2,1.5C843.9,254.2,841.1,253.7,838.4,252.8z"/>
		<path id="XMLID_287_" class="st0" d="M909.4,251.5c-3.2-1.8-5.7-4.3-7.5-7.4s-2.7-6.6-2.7-10.6c0-3.9,0.9-7.4,2.7-10.6
			s4.3-5.6,7.5-7.4c3.2-1.8,6.8-2.7,10.7-2.7s7.5,0.9,10.7,2.7c3.2,1.8,5.7,4.2,7.5,7.4s2.7,6.7,2.7,10.6c0,3.9-0.9,7.4-2.7,10.6
			s-4.3,5.6-7.5,7.4c-3.2,1.8-6.7,2.7-10.7,2.7S912.6,253.3,909.4,251.5z M928.6,248.2c2.5-1.4,4.5-3.5,6-6c1.4-2.6,2.2-5.4,2.2-8.6
			s-0.7-6-2.2-8.6s-3.4-4.6-6-6s-5.4-2.2-8.5-2.2s-6,0.7-8.6,2.2s-4.6,3.5-6,6c-1.5,2.6-2.2,5.4-2.2,8.6s0.7,6.1,2.2,8.6
			c1.5,2.6,3.5,4.6,6,6c2.6,1.4,5.4,2.2,8.6,2.2S926.1,249.7,928.6,248.2z"/>
		<path id="XMLID_188_" class="st0" d="M1008.3,253.9l-9.1-13.1c-1,0.1-2.1,0.2-3.2,0.2h-10.7v12.9h-4.2v-40.6H996
			c5.1,0,9.1,1.2,12,3.7c2.9,2.5,4.3,5.9,4.3,10.2c0,3.2-0.8,5.9-2.4,8c-1.6,2.2-3.8,3.8-6.7,4.7l9.7,13.9L1008.3,253.9
			L1008.3,253.9z M1004.9,234.7c2.1-1.8,3.1-4.3,3.1-7.5c0-3.3-1-5.8-3.1-7.6c-2.1-1.8-5.1-2.6-9-2.6h-10.6v20.4h10.6
			C999.8,237.3,1002.9,236.4,1004.9,234.7z"/>
		<path id="XMLID_186_" class="st0" d="M1065.3,251.6c-3.2-1.8-5.7-4.2-7.4-7.4c-1.8-3.1-2.7-6.7-2.7-10.6c0-3.9,0.9-7.4,2.7-10.6
			c1.8-3.1,4.3-5.6,7.5-7.4c3.2-1.8,6.8-2.7,10.7-2.7c3,0,5.7,0.5,8.2,1.5c2.5,1,4.6,2.5,6.4,4.4l-2.7,2.7c-3.1-3.2-7-4.8-11.8-4.8
			c-3.2,0-6,0.7-8.6,2.2c-2.6,1.5-4.6,3.5-6.1,6c-1.5,2.6-2.2,5.4-2.2,8.6s0.7,6,2.2,8.6c1.5,2.6,3.5,4.6,6.1,6
			c2.6,1.5,5.4,2.2,8.6,2.2c4.8,0,8.7-1.6,11.8-4.9l2.7,2.7c-1.7,1.9-3.9,3.4-6.4,4.4c-2.5,1-5.3,1.5-8.2,1.5
			C1072,254.2,1068.4,253.3,1065.3,251.6z"/>
		<path id="XMLID_184_" class="st0" d="M1128.7,213.3h4.2v40.6h-4.2V213.3z"/>
		<path id="XMLID_181_" class="st0" d="M1182.2,251.5c-3.2-1.8-5.7-4.3-7.5-7.4c-1.8-3.1-2.7-6.6-2.7-10.6c0-3.9,0.9-7.4,2.7-10.6
			c1.8-3.1,4.3-5.6,7.5-7.4c3.2-1.8,6.8-2.7,10.7-2.7s7.5,0.9,10.7,2.7c3.2,1.8,5.7,4.2,7.5,7.4s2.7,6.7,2.7,10.6
			c0,3.9-0.9,7.4-2.7,10.6s-4.3,5.6-7.5,7.4c-3.2,1.8-6.7,2.7-10.7,2.7C1188.9,254.2,1185.4,253.3,1182.2,251.5z M1201.4,248.2
			c2.5-1.4,4.5-3.5,6-6c1.4-2.6,2.2-5.4,2.2-8.6s-0.7-6-2.2-8.6c-1.4-2.6-3.4-4.6-6-6c-2.5-1.4-5.4-2.2-8.5-2.2s-6,0.7-8.6,2.2
			s-4.6,3.5-6,6c-1.5,2.6-2.2,5.4-2.2,8.6s0.7,6.1,2.2,8.6c1.5,2.6,3.5,4.6,6,6c2.6,1.4,5.4,2.2,8.6,2.2S1198.9,249.7,1201.4,248.2z
			"/>
		<path id="XMLID_111_" class="st0" d="M1253,252.8c-2.7-1-4.8-2.2-6.3-3.8l1.7-3.3c1.4,1.5,3.4,2.7,5.7,3.6
			c2.4,0.9,4.8,1.4,7.4,1.4c3.6,0,6.2-0.7,8-2c1.8-1.3,2.7-3.1,2.7-5.2c0-1.6-0.5-2.9-1.4-3.9c-1-1-2.2-1.7-3.6-2.2
			c-1.4-0.5-3.4-1.1-5.8-1.7c-3-0.8-5.4-1.5-7.2-2.2c-1.8-0.7-3.3-1.8-4.6-3.3c-1.3-1.5-1.9-3.5-1.9-6c0-2.1,0.5-3.9,1.6-5.6
			c1.1-1.7,2.7-3,4.9-4c2.2-1,4.9-1.5,8.2-1.5c2.3,0,4.5,0.3,6.7,1s4.1,1.5,5.7,2.6l-1.4,3.4c-1.7-1.1-3.4-2-5.3-2.5
			c-1.9-0.6-3.8-0.8-5.6-0.8c-3.5,0-6.1,0.7-7.9,2.1c-1.8,1.4-2.7,3.1-2.7,5.3c0,1.6,0.5,2.9,1.4,3.9c1,1,2.2,1.7,3.6,2.3
			c1.5,0.5,3.4,1.1,5.9,1.7c2.9,0.7,5.3,1.5,7.1,2.2c1.8,0.7,3.3,1.8,4.6,3.3s1.9,3.4,1.9,5.9c0,2.1-0.5,3.9-1.6,5.6
			c-1.1,1.7-2.7,3-5,4c-2.2,1-5,1.5-8.3,1.5C1258.5,254.2,1255.7,253.7,1253,252.8z"/>
	</g>
	<polygon id="XMLID_105_" class="st1" points="16,238.1 186.6,24.8 357.2,238.1 	"/>
	<polygon id="XMLID_104_" class="st1" points="92.2,42 92.2,105.5 142.8,42 	"/>
	<polygon id="XMLID_102_" class="st2" points="121.6,254 254.8,87.4 388,254 	"/>
	<g id="XMLID_305_">
		<path id="XMLID_306_" class="st3" d="M487.6,107.9h-40.4l-8.4,20.4h-11.2L462,46.6h10.8l34.5,81.6H496L487.6,107.9z M483.8,98.5
			l-16.4-40l-16.4,40H483.8z"/>
		<path id="XMLID_309_" class="st3" d="M584.1,46.6v81.6h-8.9l-45.6-60.9v60.9h-10.9V46.6h8.9l45.6,60.9V46.6H584.1z"/>
		<path id="XMLID_311_" class="st3" d="M655.4,107.9h-40.4l-8.4,20.4h-11.2l34.4-81.6h10.8l34.5,81.6h-11.4L655.4,107.9z
			 M651.5,98.5l-16.4-40l-16.4,40H651.5z"/>
		<path id="XMLID_314_" class="st3" d="M692,126.3c-5.3-1.9-9.5-4.4-12.5-7.4l4-9.1c2.9,2.8,6.6,5.1,11.1,6.8
			c4.5,1.8,9.2,2.6,14,2.6c6.3,0,11-1.2,14.1-3.4c3.1-2.3,4.7-5.3,4.7-9.2c0-2.8-0.9-5.1-2.6-6.8c-1.7-1.8-3.8-3.1-6.3-4
			s-6-2-10.6-3.2c-5.7-1.5-10.3-2.9-13.8-4.4c-3.5-1.5-6.5-3.8-9-6.8s-3.8-7.2-3.8-12.4c0-4.4,1.1-8.3,3.2-11.8
			c2.1-3.5,5.4-6.3,9.7-8.4c4.3-2.1,9.7-3.2,16.2-3.2c4.5,0,8.9,0.6,13.3,1.9c4.3,1.2,8.1,3,11.2,5.4l-3.6,9.3
			c-3.2-2.2-6.6-3.8-10.2-5c-3.6-1.1-7.2-1.7-10.7-1.7c-6.2,0-10.8,1.2-13.8,3.6c-3.1,2.4-4.6,5.5-4.6,9.3c0,2.8,0.9,5.1,2.6,6.8
			c1.7,1.8,3.9,3.1,6.5,4.1c2.6,1,6.1,2,10.5,3.1c5.7,1.5,10.3,3,13.8,4.4c3.5,1.5,6.5,3.7,9,6.8c2.5,3,3.8,7.1,3.8,12.2
			c0,4.3-1.1,8.2-3.3,11.7c-2.2,3.5-5.5,6.3-9.9,8.4c-4.4,2.1-9.8,3.1-16.3,3.1C702.9,129.2,697.3,128.3,692,126.3z"/>
		<path id="XMLID_316_" class="st3" d="M767.9,56.8h-26.1V46.6h62.9v10.1h-26.1v71.5h-10.8L767.9,56.8L767.9,56.8z"/>
		<path id="XMLID_318_" class="st3" d="M829.1,123.8c-6.2-3.6-11-8.6-14.5-15s-5.3-13.5-5.3-21.3s1.8-15,5.3-21.3s8.3-11.4,14.5-15
			c6.2-3.6,13.1-5.4,20.8-5.4c7.6,0,14.5,1.8,20.6,5.4c6.2,3.6,11,8.6,14.5,14.9c3.5,6.3,5.2,13.5,5.2,21.4c0,7.9-1.7,15.1-5.2,21.4
			s-8.3,11.3-14.5,14.9c-6.2,3.6-13,5.4-20.6,5.4C842.2,129.2,835.3,127.4,829.1,123.8z M864.9,114.7c4.5-2.7,8-6.5,10.5-11.3
			c2.6-4.8,3.8-10.1,3.8-16c0-5.9-1.3-11.3-3.8-16c-2.6-4.8-6.1-8.5-10.5-11.3c-4.5-2.7-9.5-4.1-15-4.1s-10.6,1.4-15.2,4.1
			c-4.5,2.7-8.1,6.5-10.6,11.3c-2.6,4.8-3.9,10.1-3.9,16c0,5.9,1.3,11.3,3.9,16s6.1,8.5,10.6,11.3c4.5,2.7,9.6,4.1,15.2,4.1
			S860.4,117.5,864.9,114.7z M856.5,24.8h13.3L851.5,40h-9.8L856.5,24.8z"/>
		<path id="XMLID_322_" class="st3" d="M959.7,54.2c5.7,5.1,8.5,12,8.5,20.9s-2.8,15.8-8.5,20.9c-5.7,5.1-13.4,7.6-23.2,7.6h-18.8
			v24.7h-10.9V46.6h29.7C946.3,46.6,954,49.2,959.7,54.2z M951.9,88.7c3.6-3.2,5.4-7.7,5.4-13.6c0-5.9-1.8-10.4-5.4-13.6
			c-3.6-3.2-8.9-4.7-15.8-4.7h-18.5v36.6h18.5C943,93.4,948.3,91.8,951.9,88.7z"/>
		<path id="XMLID_325_" class="st3" d="M992.2,119.9c-5.7-6.2-8.5-15.2-8.5-26.8V46.6h10.9v46c0,17.5,7.1,26.2,21.4,26.2
			c7,0,12.3-2.2,16-6.5c3.7-4.3,5.5-10.9,5.5-19.8v-46h10.5V93c0,11.7-2.8,20.7-8.5,26.9c-5.7,6.2-13.5,9.3-23.7,9.3
			S997.8,126.1,992.2,119.9z"/>
		<path id="XMLID_327_" class="st3" d="M1070.3,46.6h10.9v71.5h41.2v10.2h-52L1070.3,46.6L1070.3,46.6z"/>
		<path id="XMLID_329_" class="st3" d="M1147,123.8c-6.2-3.6-11-8.6-14.5-15s-5.3-13.5-5.3-21.3s1.8-15,5.3-21.3s8.3-11.4,14.5-15
			c6.2-3.6,13.1-5.4,20.8-5.4c7.6,0,14.5,1.8,20.6,5.4c6.2,3.6,11,8.6,14.4,14.9c3.5,6.3,5.2,13.5,5.2,21.4c0,7.9-1.7,15.1-5.2,21.4
			c-3.5,6.3-8.3,11.3-14.4,14.9c-6.2,3.6-13,5.4-20.6,5.4C1160.1,129.2,1153.2,127.4,1147,123.8z M1182.8,114.7
			c4.5-2.7,8-6.5,10.5-11.3c2.6-4.8,3.8-10.1,3.8-16c0-5.9-1.3-11.3-3.8-16c-2.6-4.8-6.1-8.5-10.5-11.3c-4.5-2.7-9.5-4.1-15.1-4.1
			s-10.6,1.4-15.2,4.1c-4.5,2.7-8.1,6.5-10.6,11.3c-2.6,4.8-3.9,10.1-3.9,16c0,5.9,1.3,11.3,3.9,16s6.1,8.5,10.6,11.3
			c4.5,2.7,9.6,4.1,15.2,4.1S1178.3,117.5,1182.8,114.7z"/>
		<path id="XMLID_332_" class="st3" d="M1230.3,126.3c-5.3-1.9-9.5-4.4-12.6-7.4l4-9.1c2.9,2.8,6.6,5.1,11.1,6.8
			c4.5,1.8,9.2,2.6,14,2.6c6.3,0,11-1.2,14.1-3.4c3.1-2.3,4.7-5.3,4.7-9.2c0-2.8-0.9-5.1-2.6-6.8s-3.8-3.1-6.3-4s-6-2-10.6-3.2
			c-5.7-1.5-10.3-2.9-13.8-4.4c-3.5-1.5-6.5-3.8-9-6.8s-3.8-7.2-3.8-12.4c0-4.4,1.1-8.3,3.2-11.8c2.1-3.5,5.4-6.3,9.7-8.4
			s9.7-3.2,16.2-3.2c4.5,0,8.9,0.6,13.3,1.9s8.1,3,11.2,5.4l-3.6,9.3c-3.2-2.2-6.6-3.8-10.2-5c-3.6-1.1-7.2-1.7-10.7-1.7
			c-6.2,0-10.8,1.2-13.8,3.6s-4.6,5.5-4.6,9.3c0,2.8,0.9,5.1,2.6,6.8c1.7,1.8,3.9,3.1,6.5,4.1c2.6,1,6.1,2,10.5,3.1
			c5.7,1.5,10.3,3,13.8,4.4c3.5,1.5,6.5,3.7,9,6.8c2.5,3,3.8,7.1,3.8,12.2c0,4.3-1.1,8.2-3.3,11.7c-2.2,3.5-5.5,6.3-9.9,8.4
			c-4.4,2.1-9.8,3.1-16.3,3.1C1241.1,129.2,1235.6,128.3,1230.3,126.3z"/>
	</g>
</g>
</svg>
