<?xml version="1.0" standalone="no"?>
<!DOCTYPE svg PUBLIC "-//W3C//DTD SVG 20010904//EN"
 "http://www.w3.org/TR/2001/REC-SVG-20010904/DTD/svg10.dtd">
<svg version="1.0" xmlns="http://www.w3.org/2000/svg"
 width="1300.000000pt" height="1300.000000pt" viewBox="0 0 1300.000000 1300.000000"
 preserveAspectRatio="xMidYMid meet">
<metadata>
Created by potrace 1.11, written by Peter Selinger 2001-2013
</metadata>
<g transform="translate(0.000000,1300.000000) scale(0.100000,-0.100000)"
fill="#000000" stroke="none">
<path d="M3244 6942 c-1156 -1445 -2100 -2629 -2098 -2631 1 -2 948 -3 2103
-3 1559 0 2099 -3 2094 -12 -4 -6 -23 -31 -42 -56 -20 -24 -41 -51 -48 -60 -7
-8 -98 -122 -203 -254 -105 -131 -189 -240 -187 -242 2 -2 1568 -3 3480 -2
l3477 3 -114 144 c-63 79 -123 153 -133 165 -10 11 -34 41 -53 66 -19 25 -42
54 -52 65 -16 20 -204 255 -263 329 -16 21 -56 70 -88 110 -31 39 -87 109
-124 156 -37 47 -70 87 -73 90 -3 3 -13 14 -21 26 -8 11 -30 41 -51 65 -20 24
-83 103 -139 174 -57 72 -106 132 -109 135 -3 3 -21 25 -40 50 -19 25 -37 47
-40 50 -3 3 -21 25 -40 50 -19 25 -48 61 -65 80 -16 20 -41 51 -55 69 -14 19
-58 75 -98 125 -41 50 -86 106 -100 125 -30 37 -160 199 -198 245 -13 16 -34
43 -46 59 -13 16 -47 59 -76 96 -50 61 -166 206 -237 295 -73 92 -573 717
-602 752 -17 21 -78 98 -134 169 -57 72 -108 135 -114 141 -5 6 -20 24 -33 41
-13 17 -75 95 -138 174 -64 79 -128 159 -142 178 -56 71 -94 116 -102 119 -4
1 -81 -90 -171 -204 -90 -113 -169 -211 -174 -218 -6 -6 -33 -39 -60 -74 -28
-35 -59 -74 -70 -87 -11 -14 -105 -132 -210 -264 -104 -132 -193 -240 -197
-240 -3 -1 -50 54 -104 122 -55 67 -104 129 -111 137 -7 8 -82 103 -168 210
-86 107 -161 202 -168 210 -7 8 -75 94 -152 190 -77 96 -145 182 -152 190 -7
8 -74 92 -148 185 -171 213 -164 205 -319 399 -71 88 -141 177 -157 196 -15
19 -87 109 -160 200 -72 91 -146 182 -163 204 -17 21 -44 55 -61 76 -16 20
-42 52 -57 71 -14 19 -35 44 -45 56 -10 11 -47 58 -81 102 -35 45 -65 81 -65
81 -1 0 -948 -1183 -2103 -2628z"/>
<path d="M3022 9136 c-7 -13 -9 -1556 -1 -1556 4 0 31 33 62 73 30 40 61 80
68 88 8 8 27 32 43 54 17 22 33 42 36 45 5 4 306 381 435 544 68 86 129 163
160 201 55 67 430 539 437 550 4 7 -201 10 -614 10 -365 0 -622 -4 -626 -9z"/>
</g>
</svg>
